<svg xmlns="http://www.w3.org/2000/svg" fill="none" viewBox="0 0 106 48" height="48" width="106">
<path fill="black" d="M22.4214 26.844V26.2697C24.1404 26.1744 24.9357 25.7935 24.9357 24.3602V7.04016C24.9366 5.60683 24.1404 5.19254 22.5814 5.12778V4.55635H30.6042V5.12873C29.0766 5.1935 28.2804 5.60683 28.2804 7.04016V24.3602C28.2804 25.7935 29.0766 26.1744 30.7966 26.2697V26.844H22.4214ZM60.8509 7.77159L53.7519 27.0021H53.1804L48.1471 12.5468L42.129 27.0021H41.5557L34.6471 7.00778C34.2328 5.82969 33.7233 5.22492 32.1004 5.12873V4.55635H40.3785V5.12873C38.7547 5.22397 38.309 5.76683 38.309 6.49826C38.309 6.88016 38.5319 7.58112 38.7547 8.18492L43.0842 20.7621L47.3833 10.2868L46.1719 6.72112C45.7909 5.63826 45.1861 5.22492 43.7528 5.12873V4.55635H52.0004V5.12873C50.089 5.16112 49.8671 5.79826 49.8671 6.30778C49.8671 6.65731 49.9938 7.19826 50.2166 7.80302L54.5481 20.3164L58.6547 9.14016C59.1966 7.67635 59.3557 6.78397 59.3557 6.4354C59.3557 5.57445 58.6871 5.22492 57.0947 5.12873V4.55635H64.1957V5.12873C62.5071 5.22397 61.6166 5.7335 60.8509 7.77159ZM74.0642 27.3211C67.1557 27.3211 63.1757 22.4497 63.1757 15.6992C63.1757 11.624 65.6281 4.3335 74.1614 4.3335C78.0138 4.3335 79.0319 5.82873 80.369 5.82873C80.8785 5.82873 81.229 5.57445 81.3233 4.61921H81.8976L82.1509 11.4021H81.4842C80.6233 7.51635 77.7909 5.60683 74.4481 5.60683C72.6957 5.60683 71.0728 6.21159 69.7976 7.51731C68.1757 9.17254 67.1557 11.9106 67.1557 15.6992C67.1557 21.5897 69.7671 25.7935 74.7966 25.7935C78.1719 25.7935 80.2728 24.4554 81.93 21.8449L82.5033 22.163C80.8147 25.4421 78.0138 27.3211 74.0642 27.3211Z" clip-rule="evenodd" fill-rule="evenodd"></path>
<path fill="black" d="M98.4136 43.6982H99.5793V38.901L103.297 43.6982H104.291V36.9524H103.124V41.6163L99.5117 36.9524H98.4136V43.6972V43.6982ZM89.7041 43.6982H94.7517V42.6382H90.8888V40.8267H94.2698V39.7658H90.8888V38.0134H94.7041V36.9524H89.7041V43.6972V43.6982ZM83.8946 43.7944C85.3108 43.7944 86.3041 43.042 86.3041 41.781V41.762C86.3041 40.6448 85.5707 40.1334 84.145 39.7867C82.8441 39.4782 82.5355 39.2477 82.5355 38.7267V38.7077C82.5355 38.2639 82.9412 37.9077 83.6346 37.9077C84.2508 37.9077 84.8584 38.1486 85.466 38.601L86.1012 37.7058C85.4174 37.1563 84.6365 36.8582 83.6536 36.8582C82.3146 36.8582 81.3508 37.6572 81.3508 38.8134V38.8324C81.3508 40.0763 82.1603 40.5001 83.5955 40.8467C84.8488 41.1353 85.1193 41.3953 85.1193 41.8772V41.8963C85.1193 42.3972 84.6565 42.7439 83.9231 42.7439C83.0946 42.7439 82.4403 42.4267 81.7946 41.8677L81.0803 42.7153C81.8507 43.4144 82.8552 43.7994 83.8955 43.7944H83.8946ZM75.0784 43.8039C76.8431 43.8039 77.9793 42.7924 77.9793 40.7791V36.9524H76.7946V40.8353C76.7946 42.0791 76.1488 42.7039 75.0993 42.7039C74.0393 42.7039 73.3936 42.0401 73.3936 40.7877V36.9524H72.2088V40.8353C72.2088 42.7915 73.326 43.8039 75.0793 43.8039H75.0784ZM65.0212 41.0201L66.1765 38.322L67.3431 41.0201H65.0222H65.0212ZM62.6803 43.6982H63.8946L64.5889 42.0696H67.7774L68.4612 43.6982H69.7136L66.746 36.9058H65.6479L62.6803 43.6982ZM53.6631 43.6982H54.8479V40.8563H58.066V43.6982H59.2498V36.9524H58.066V39.7572H54.8469V36.9524H53.6641V43.6972L53.6631 43.6982ZM45.3774 43.6982H46.5622V40.9524H49.9631V39.8734H46.5631V38.0334H50.3965V36.9534H45.3774V43.6982ZM36.9374 43.6982H38.1231V40.9524H41.5241V39.8734H38.1231V38.0334H41.9574V36.9534H36.9384V43.6982H36.9374ZM29.1346 41.0201L30.2908 38.322L31.4555 41.0201H29.1346ZM26.7927 43.6982H28.0069L28.7012 42.0696H31.8898L32.5736 43.6982H33.826L30.8584 36.9058H29.7603L26.7927 43.6982ZM18.0355 43.6982H19.2203V40.8563H22.4393V43.6982H23.6241V36.9524H22.4384V39.7572H19.2203V36.9524H18.0355V43.6972V43.6982ZM12.0527 43.8134C13.3146 43.8134 14.086 43.3515 14.7888 42.6191L14.0279 41.8477C13.4498 42.3877 12.9203 42.7153 12.0917 42.7153C10.8003 42.7153 9.86599 41.6458 9.86599 40.3258V40.3067C9.86599 38.9867 10.8098 37.9277 12.0917 37.9277C12.8622 37.9277 13.4403 38.2639 13.9803 38.7658L14.7412 37.8896C14.0955 37.2724 13.3441 36.8391 12.1012 36.8391C10.0584 36.8391 8.62313 38.4086 8.62313 40.3258V40.3448C8.62313 42.282 10.0879 43.8134 12.0527 43.8134ZM3.38218 43.7944C4.79837 43.7944 5.79075 43.042 5.79075 41.781V41.762C5.79075 40.6448 5.05837 40.1334 3.63266 39.7867C2.3317 39.4782 2.02313 39.2477 2.02313 38.7267V38.7077C2.02313 38.2639 2.4279 37.9077 3.12218 37.9077C3.73837 37.9077 4.34504 38.1486 4.95266 38.601L5.5879 37.7058C4.90409 37.1563 4.12409 36.8582 3.14123 36.8582C1.80218 36.8582 0.838371 37.6572 0.838371 38.8134V38.8324C0.838371 40.0763 1.6479 40.5001 3.08313 40.8467C4.33551 41.1353 4.60599 41.3953 4.60599 41.8772V41.8963C4.60599 42.3972 4.14313 42.7439 3.41075 42.7439C2.58218 42.7439 1.92694 42.4267 1.28218 41.8677L0.568848 42.7144C1.33874 43.4131 2.34248 43.7981 3.38218 43.7934V43.7944Z" clip-rule="evenodd" fill-rule="evenodd"></path>
</svg>
