<svg xmlns="http://www.w3.org/2000/svg" fill="none" viewBox="0 0 96 48" height="48" width="96">
<mask height="39" width="94" y="2" x="0" maskUnits="userSpaceOnUse" style="mask-type:luminance" id="mask0_1519_7792">
<path fill="white" d="M94 2H0V41H94V2Z"></path>
</mask>
<g mask="url(#mask0_1519_7792)">
<path fill="black" d="M79.804 37.6546C79.504 36.7394 79.403 36.0037 79.403 33.9926C79.403 31.9816 79.502 31.2445 79.804 30.3293C80.525 28.1193 82.288 26.9845 84.752 26.9845C87.156 26.9845 88.881 28.1193 89.64 30.0693C89.701 30.2098 89.68 30.2904 89.541 30.3488L86.876 31.5032C86.736 31.5631 86.656 31.5229 86.595 31.3838C86.215 30.5882 85.734 30.1098 84.812 30.1098C83.951 30.1098 83.41 30.5284 83.168 31.285C83.028 31.7021 82.968 32.1209 82.968 33.9928C82.968 35.8648 83.028 36.2808 83.168 36.6994C83.408 37.456 83.95 37.8746 84.812 37.8746C85.734 37.8746 86.213 37.396 86.595 36.6006C86.655 36.4601 86.737 36.4213 86.876 36.4812L89.541 37.6356C89.681 37.6955 89.701 37.7746 89.64 37.9151C88.878 39.8651 87.157 41 84.752 41C82.288 41 80.525 39.8645 79.804 37.6546ZM73.766 40.5614V27.4225C73.766 27.3031 73.846 27.2226 73.966 27.2226H77.093C77.212 27.2226 77.292 27.3031 77.292 27.4225V40.5601C77.292 40.6794 77.212 40.7605 77.091 40.7605H73.964C73.844 40.7605 73.766 40.6823 73.766 40.5614ZM62.435 40.5614V27.4225C62.435 27.3031 62.515 27.2226 62.6352 27.2226H65.7622C65.8823 27.2226 65.9624 27.3031 65.9624 27.4225V37.5351C65.9624 37.6142 66.001 37.6544 66.0826 37.6544H71.853C71.973 37.6544 72.053 37.7336 72.053 37.8534V40.56C72.053 40.6794 71.973 40.7604 71.853 40.7604H62.6352C62.5151 40.7604 62.435 40.6823 62.435 40.5614ZM53.4315 37.9926C53.4315 38.0732 53.4701 38.112 53.5517 38.112H55.1539C56.2561 38.112 56.8169 37.5751 56.8169 36.5794C56.8169 35.6434 56.2561 35.0662 55.1539 35.0662H53.5517C53.4703 35.0662 53.4315 35.1055 53.4315 35.1856V37.9926ZM53.5517 32.6575H54.973C56.0364 32.6575 56.5972 32.1986 56.5972 31.264C56.5972 30.3085 56.0558 29.8704 54.9743 29.8704H53.5517C53.4703 29.8704 53.4315 29.9097 53.4315 29.9898V32.5377C53.4315 32.6183 53.4701 32.6575 53.5517 32.6575ZM49.904 40.5614V27.4225C49.904 27.3031 49.9841 27.2226 50.1043 27.2226H55.6552C58.7007 27.2226 60.1027 28.6759 60.1027 30.8261C60.1027 32.2196 59.4605 33.1959 58.4397 33.7328V33.7721C59.4424 34.1519 60.343 35.2853 60.343 36.8583C60.343 39.5063 58.4591 40.7608 55.5932 40.7608H50.103C49.9841 40.7608 49.9039 40.6822 49.904 40.5614ZM42.101 40.9996C38.7957 40.9996 36.6715 39.1277 36.6715 35.5267V27.4241C36.6715 27.3047 36.7516 27.2236 36.8718 27.2236H39.9987C40.1175 27.2236 40.1977 27.3042 40.1977 27.4241V35.7439C40.1977 37.0985 40.96 37.8758 42.101 37.8758C43.2833 37.8758 43.9849 37.0985 43.9849 35.7439V27.4241C43.9849 27.3047 44.0662 27.2236 44.1864 27.2236H47.312C47.4322 27.2236 47.5123 27.3042 47.5123 27.4241V35.5255C47.5123 39.1303 45.348 40.9996 42.101 40.9996ZM29.6708 33.2765C30.773 33.2765 31.3945 32.659 31.3945 31.723C31.3945 30.7871 30.773 30.1904 29.6708 30.1904H27.8683C27.787 30.1904 27.7481 30.2297 27.7481 30.3098V33.1567C27.7481 33.2358 27.7868 33.2761 27.8683 33.2761L29.6708 33.2765ZM27.5466 40.7618H24.421C24.3021 40.7618 24.222 40.6812 24.222 40.5618V27.4229C24.222 27.3035 24.302 27.223 24.4222 27.223H29.8724C33.1983 27.223 34.922 29.0949 34.922 31.7222C34.922 34.3091 33.1776 36.2408 29.8711 36.2408H27.8683C27.787 36.2408 27.7481 36.2802 27.7481 36.3602V40.5605C27.7481 40.6813 27.6681 40.7609 27.5479 40.7609L27.5466 40.7618ZM12.832 40.5628V27.4226C12.832 27.3032 12.9121 27.2227 13.0323 27.2227H21.9491C22.0693 27.2227 22.1494 27.3032 22.1494 27.4226V29.9901C22.1494 30.11 22.0694 30.1891 21.9491 30.1891H16.4796C16.3982 30.1891 16.3595 30.2284 16.3595 30.3084V32.3585C16.3595 32.439 16.398 32.4779 16.4796 32.4779H20.9671C21.0873 32.4779 21.1687 32.5584 21.1687 32.6778V35.1855C21.1687 35.3039 21.0873 35.3845 20.9671 35.3845H16.4796C16.3982 35.3845 16.3595 35.4238 16.3595 35.5039V37.6748C16.3595 37.7529 16.398 37.7932 16.4796 37.7932H21.9491C22.0693 37.7932 22.1494 37.8738 22.1494 37.9922V40.5596C22.1494 40.679 22.0694 40.7601 21.9491 40.7601H13.0323C12.9121 40.7601 12.832 40.6819 12.832 40.5611V40.5628ZM5.5303 33.0567C6.5317 33.0567 7.1325 32.4977 7.1325 31.6229C7.1325 30.7467 6.5317 30.1889 5.5303 30.1889H3.6464C3.5663 30.1889 3.5262 30.2283 3.5262 30.3084V32.9343C3.5262 33.0149 3.5648 33.0552 3.6464 33.0552H5.5303V33.0567ZM10.7801 40.7604H7.3134C7.1325 40.7604 7.0731 40.7004 7.0123 40.5599L4.9488 35.9424H3.6464C3.5663 35.9424 3.5262 35.9817 3.5262 36.0618V40.5597C3.5262 40.6791 3.4461 40.7602 3.3259 40.7602H0.2003C0.0801002 40.7602 0 40.6796 0 40.5597V27.4222C0 27.3028 0.0801002 27.2222 0.2003 27.2222H5.7512C8.8781 27.2222 10.6612 29.0343 10.6612 31.5823C10.6612 33.2749 9.8588 34.6477 8.4155 35.3653L10.9209 40.5209C10.9791 40.6403 10.9196 40.7604 10.7801 40.7604ZM51.89 24.3131V11.1743C51.89 11.0549 51.9701 10.9743 52.0903 10.9743H61.0072C61.1273 10.9743 61.2074 11.0548 61.2074 11.1743V13.7417C61.2074 13.8611 61.1274 13.9407 61.0072 13.9407H55.5376C55.4562 13.9407 55.4175 13.9801 55.4175 14.0601V16.1102C55.4175 16.1907 55.4561 16.2296 55.5376 16.2296H60.0252C60.1453 16.2296 60.2267 16.3101 60.2267 16.43V18.939C60.2267 19.0574 60.1454 19.138 60.0252 19.138H55.5376C55.4562 19.138 55.4175 19.1773 55.4175 19.2573V21.4283C55.4175 21.5065 55.4561 21.5452 55.5376 21.5452H61.0072C61.1273 21.5452 61.2074 21.6273 61.2074 21.7457V24.3131C61.2074 24.4325 61.1274 24.5136 61.0072 24.5136H52.0903C51.9701 24.5124 51.89 24.433 51.89 24.3131ZM42.5441 21.2881C42.5441 21.3672 42.5842 21.4065 42.6643 21.4065H43.7265C44.9695 21.4065 45.6504 21.0685 45.9709 20.113C46.091 19.7141 46.1711 19.2576 46.1711 17.7445C46.1711 16.2313 46.0911 15.7724 45.9709 15.3746C45.6504 14.4178 44.9695 14.0811 43.7265 14.0811H42.6643C42.5843 14.0811 42.5441 14.1204 42.5441 14.1996V21.2881ZM39.018 24.3131V11.1743C39.018 11.0549 39.0993 10.9743 39.2195 10.9743H44.4888C46.8921 10.9743 48.6558 11.9701 49.3381 14.0604C49.6185 14.9366 49.7386 15.6932 49.7386 17.7432C49.7386 19.7725 49.6184 20.5512 49.3381 21.4247C48.6558 23.5151 46.8921 24.5109 44.4888 24.5109H39.2195C39.0993 24.5109 39.018 24.4324 39.018 24.3131ZM29.6153 19.316H32.2589L30.9965 15.095H30.9358L29.6153 19.316ZM24.3848 24.3131L29.0933 11.1756C29.1319 11.0562 29.2134 10.9751 29.3543 10.9751H32.6207C32.7616 10.9751 32.8417 11.0557 32.8818 11.1756L37.4894 24.3131C37.5295 24.4325 37.4699 24.5131 37.3499 24.5131H34.0421C33.9025 24.5131 33.8224 24.4325 33.7823 24.3131L33.1415 22.2228H28.7108L28.0699 24.3131C28.0299 24.4325 27.9497 24.5131 27.8089 24.5131H24.523C24.4029 24.5119 24.3422 24.4325 24.3835 24.3131H24.3848ZM17.985 16.8084C18.9863 16.8084 19.5872 16.2494 19.5872 15.3745C19.5872 14.4983 18.9863 13.9406 17.985 13.9406H16.0998C16.0183 13.9406 15.9796 13.98 15.9796 14.06V16.686C15.9796 16.7665 16.0182 16.8068 16.0998 16.8068H17.9837L17.985 16.8084ZM23.2348 24.512H19.7681C19.5872 24.512 19.5277 24.4521 19.4683 24.3115L17.4035 19.694H16.1024C16.021 19.694 15.9822 19.7334 15.9822 19.8134V24.3113C15.9822 24.4307 15.9008 24.5118 15.7806 24.5118H12.6537C12.5335 24.5118 12.4534 24.4312 12.4534 24.3113V11.1738C12.4534 11.0544 12.5335 10.9738 12.6537 10.9738H18.2046C21.3315 10.9738 23.1133 12.786 23.1133 15.3352C23.1133 17.0277 22.3122 18.4005 20.8689 19.1181L23.3743 24.2738C23.4338 24.3908 23.3743 24.5116 23.2322 24.5116L23.2348 24.512ZM7.0162 24.512H3.8893C3.7704 24.512 3.689 24.4315 3.689 24.3115V14.1991C3.689 14.12 3.6504 14.0806 3.5688 14.0806H0.221001C0.102101 14.0806 0.0219994 14.0001 0.0219994 13.8807V11.1741C0.0219994 11.0547 0.1021 10.9741 0.2222 10.9741H10.6819C10.8021 10.9741 10.8822 11.0547 10.8822 11.1741V13.8807C10.8822 14.0001 10.8021 14.0806 10.6819 14.0806H7.3353C7.2552 14.0806 7.2151 14.12 7.2151 14.1991V24.3129C7.2151 24.4323 7.135 24.5119 7.0149 24.5119L7.0162 24.512ZM93.492 9.92238C93.636 9.88868 93.765 9.80707 93.857 9.69077C93.949 9.57447 93.999 9.43028 94 9.28148H93.998V2.65937C93.997 2.55927 93.973 2.46057 93.929 2.37077C93.885 2.28097 93.821 2.20237 93.743 2.14077C93.665 2.07917 93.573 2.03617 93.476 2.01497C93.379 1.99387 93.278 1.99507 93.181 2.01857L83.69 4.27918C83.399 4.34908 83.093 4.33717 82.808 4.24477L78.526 2.84728C78.24 2.75418 77.933 2.74227 77.641 2.81287L67.9137 5.14497C67.7698 5.17837 67.6414 5.25977 67.5492 5.37587C67.457 5.49197 67.4065 5.63597 67.4059 5.78457V12.4054C67.407 12.5057 67.4306 12.6045 67.4749 12.6944C67.5192 12.7843 67.5831 12.863 67.6618 12.9246C67.7406 12.9863 67.8321 13.0292 67.9297 13.0502C68.0272 13.0713 68.1282 13.0699 68.2251 13.0463L77.641 10.7895C77.933 10.7192 78.24 10.731 78.526 10.8239L82.808 12.2227C83.092 12.3136 83.398 12.3268 83.69 12.2571L93.491 9.92357L93.492 9.92238ZM93.492 19.8022C93.636 19.7687 93.765 19.6872 93.857 19.5708C93.949 19.4544 94 19.3101 94 19.1613H93.998V12.5406C93.997 12.4404 93.973 12.3417 93.929 12.2519C93.885 12.1621 93.821 12.0835 93.743 12.0219C93.665 11.9603 93.573 11.9173 93.476 11.8961C93.379 11.875 93.278 11.8762 93.181 11.8997L83.69 14.1577C83.399 14.2276 83.093 14.2157 82.808 14.1233L78.526 12.725C78.24 12.6319 77.933 12.62 77.641 12.6906L67.915 15.0227C67.7709 15.0562 67.6423 15.1377 67.5501 15.2541C67.4579 15.3704 67.4075 15.5148 67.4072 15.6636V22.283C67.4083 22.3834 67.4319 22.4822 67.4762 22.5721C67.5205 22.662 67.5844 22.7407 67.6631 22.8023C67.7419 22.8639 67.8334 22.9069 67.9309 22.9279C68.0285 22.949 68.1295 22.9476 68.2264 22.9239L77.642 20.6672C77.934 20.5969 78.242 20.6087 78.527 20.7016L82.809 22.1004C83.093 22.1927 83.4 22.2045 83.692 22.1348L93.492 19.8022Z"></path>
</g>
</svg>
