<svg xmlns="http://www.w3.org/2000/svg" fill="none" viewBox="0 0 102 48" height="48" width="102">
<path fill="black" d="M90.9382 10.6516C91.5942 11.4622 95.6456 11.4329 98.0884 9.79096C95.8779 12.356 94.3739 16.4267 93.9692 17.8211C105.199 11.4275 99.1797 35.4396 90.9219 37.5886C89.0257 38.0817 80.0347 38.2985 93.8737 21.2916C93.8737 21.2916 91.473 25.3901 90.1898 29.1104C83.9657 53.6416 111.348 6.57466 90.2841 21.236C91.1641 19.5285 91.0242 18.0979 93.5569 12.6522C93.5569 12.6522 92.744 12.7794 91.2324 12.5133C84.745 29.0583 82.4602 20.3186 82.2954 19.0211C80.1306 22.3095 77.3644 19.6685 79.5421 19.2228C79.5421 19.2228 81.003 20.6618 82.1419 17.2628C82.2078 16.5382 82.6571 10.689 83.6436 7.53677C83.8801 6.72081 85.6824 1.17548 89.6466 0.97998C90.5372 0.97998 91.3139 1.85298 91.2837 2.72521C91.0193 8.90563 86.5112 13.8351 83.9503 16.9473C83.8748 17.7756 83.848 18.2442 84.3237 19.1899C85.9616 22.4005 90.9382 10.6516 90.9382 10.6516ZM84.0471 15.0826C83.8107 17.1024 91.0728 4.47854 87.203 3.25541C87.1151 3.25541 85.0913 6.16825 84.0471 15.0826Z"></path>
<path fill="black" d="M60.77 19.8841C60.5406 20.6561 59.3954 26.2978 59.4587 27.2749C59.4202 30.6609 62.2535 28.1247 62.6451 27.5386C62.9162 25.5134 62.9303 20.7941 63.249 18.8515C63.4847 16.6952 63.8605 14.0233 64.4225 12.226C64.6662 11.3847 66.1653 5.85438 70.2506 5.65272C71.9435 5.43562 72.1865 8.7672 72.1558 9.66684C72.0099 13.0698 69.4229 15.8299 67.464 18.4605C67.5044 18.4388 70.2446 16.4603 70.4184 19.1298C70.5406 20.3808 69.0325 25.8066 69.5656 25.7414C69.6825 25.5435 70.6187 25.112 72.4856 18.6911L75.0918 16.8914C72.7093 19.9076 75.2928 29.7902 77.8175 20.0171C76.7855 19.6801 75.5882 18.8087 75.1374 18.0679C74.4852 16.9964 79.5565 11.813 80.5901 14.6179C80.8708 15.3798 79.9239 19.0686 79.9239 19.0686C77.5591 27.6443 73.8039 26.0402 73.0171 25.5674C72.3159 25.151 72.3136 23.7636 72.1382 23.1108C68.9069 32.0178 65.7386 30.4947 68.0253 22.0492C68.4912 20.0645 66.3433 20.6279 65.6413 21.2939C64.6421 22.3006 64.4919 27.8919 64.2218 29.6745L62.2841 30.598C62.378 29.7473 62.378 29.6283 62.4617 28.8547C62.4617 28.8547 59.6251 31.4964 57.456 31.3828C56.8224 31.1622 56.6869 30.4376 56.6545 29.7759C56.5911 28.7988 57.6247 25.2058 57.6793 24.7959L57.0864 24.7616C51.5688 35.6073 43.9101 37.8754 45.0867 31.0187C44.9357 31.0669 44.1365 31.1174 43.8278 31.0631C35.013 49.6232 33.8629 32.8591 37.3288 21.3038C37.5936 20.39 39.6128 14.1818 44.0501 13.9632C45.0482 13.9632 45.9165 14.9399 45.8833 15.9167C45.5873 22.8367 40.7309 27.9944 37.8629 31.4783C37.3092 41.2406 40.3658 35.6209 42.3289 29.8399C41.015 27.8549 45.0071 26.3784 45.0071 26.3784C43.1326 29.2673 45.2738 28.963 45.4718 29.0656C46.6257 22.8367 49.6084 21.4527 51.4782 22.0107C55.1298 26.9633 47.2512 30.5541 47.2512 30.5541C46.6906 36.2706 52.6862 31.1379 55.6296 24.5846C55.3794 24.5464 55.2874 24.4993 55.0355 24.3825C53.9909 23.9094 53.9468 22.5983 54.0731 22.4939C54.0731 22.4939 55.7868 20.4332 56.3851 20.4332C56.7733 20.8585 57.6635 22.5752 57.4922 23.68C57.6103 23.6977 57.7284 23.7069 57.8453 23.7065C57.9581 23.0908 58.2463 21.8071 58.5659 21.1123L60.77 19.8841ZM64.9533 19.7086C64.707 21.816 72.2841 8.64499 68.246 7.36864C68.1543 7.36864 66.0423 10.4075 64.9533 19.7086ZM38.0926 29.2572C37.8245 31.5466 46.055 17.2396 41.6691 15.8534C41.5698 15.8534 39.2756 19.1549 38.0926 29.2572ZM78.9722 14.2832C78.7738 14.5377 74.9741 17.7575 77.873 19.1649C78.9338 17.3858 78.9182 14.4702 78.9722 14.2832ZM47.4213 28.375C47.703 28.0538 52.4847 25.6689 49.2643 22.6778C47.637 24.4616 47.5058 28.1333 47.4213 28.375Z"></path>
<path fill="black" d="M26.0948 45.7488C28.8085 42.8646 39.749 19.9432 26.9284 14.1121C26.4467 13.9568 19.7594 21.2396 19.4063 25.0605L15.4409 27.3329C19.1792 14.2649 29.32 11.445 30.7534 11.9081C40.7025 15.6284 33.9651 49.8817 21.94 47.7389C20.209 47.2484 18.7775 45.5622 18.47 43.618C17.7771 39.2187 17.1815 29.6238 23.8084 23.9025C28.4384 20.0987 28.4346 20.768 28.4346 20.768C18.6352 30.1432 22.0823 49.8863 26.0948 45.7488Z"></path>
<path fill="black" d="M9.28264 24.2971H14.2412L14.2227 25.2048H9.26416L9.28264 24.2971Z"></path>
<path fill="black" d="M0.0682767 23.0517H0.624675C1.0928 25.1243 2.23842 26.1605 4.06151 26.1605C4.80238 26.1605 5.4542 25.9369 6.01664 25.4896C6.57832 25.0368 6.86614 24.4889 6.87934 23.8453C6.89065 23.2727 6.693 22.8335 6.28635 22.5281C5.88537 22.2174 5.28634 21.9416 4.48928 21.7018L2.67675 21.1786C1.9638 20.9657 1.38779 20.592 0.949083 20.0575C0.510377 19.5235 0.299135 18.8553 0.315356 18.0536C0.334216 17.1317 0.67409 16.3878 1.33573 15.8202C2.00379 15.253 2.8265 14.97 3.80501 14.97C4.86236 14.97 5.75561 15.248 6.4859 15.8037L7.183 15.1334H7.52024L7.45724 18.2422H6.9016C6.8088 17.4135 6.47647 16.7314 5.90385 16.1965C5.33727 15.6625 4.61301 15.3953 3.7322 15.3953C3.1064 15.3953 2.55906 15.5781 2.08979 15.9432C1.62657 16.303 1.39005 16.7476 1.37949 17.2766C1.37119 17.675 1.47115 17.9885 1.67938 18.2175C1.89289 18.4465 2.24219 18.6266 2.72541 18.757L5.21731 19.4603C6.15357 19.7221 6.8469 20.1478 7.2973 20.7366C7.74695 21.3259 7.96347 22.0512 7.94574 22.913C7.92423 23.9765 7.54212 24.8548 6.799 25.547C6.0619 26.2399 5.10377 26.5854 3.92497 26.5862C3.31727 26.5862 2.76049 26.4871 2.25351 26.2908C1.74728 26.0899 1.40175 25.904 1.2169 25.7352L0.337234 26.4381H0L0.0682767 23.0517Z"></path>
<path fill="black" d="M14.537 22.2999C14.3638 22.7472 14.0926 23.0934 13.7229 23.3387C13.3536 23.5843 12.8923 23.7065 12.3392 23.7065C11.5309 23.7065 10.9956 23.6028 10.7323 23.3957C10.4751 23.1829 10.3486 22.8312 10.3525 22.3404L10.3547 22.2424L10.449 17.5716H9.26416L9.27397 17.0641H10.4592L10.5018 14.97L10.4995 15.0683C10.9005 15.0683 11.5667 15.0355 12.4981 14.97L12.4555 17.0641H14.2054L14.1955 17.5716H12.4453L12.3498 22.2836C12.3392 22.7965 12.5712 23.0529 13.045 23.0529C13.331 23.0529 13.5599 22.9739 13.7335 22.8158C13.9134 22.6519 14.0571 22.4255 14.1665 22.1367L14.537 22.2999Z"></path>
<path fill="black" d="M90.0494 22.7429L32.5989 44.1188L30.8818 47.8054L90.0494 22.7429Z"></path>
</svg>
