<svg xmlns="http://www.w3.org/2000/svg" fill="none" viewBox="0 0 147 48" height="48" width="147">
<path fill="black" d="M18.0558 21.5821C17.9612 21.5821 17.8815 21.5845 17.8367 21.5893C17.7845 21.6818 17.7073 21.8059 17.5928 21.9786C19.3751 21.9786 20.9931 22.1221 22.7828 22.4359L22.2775 22.9127C20.662 22.633 19.3203 22.5211 17.6102 22.5211C17.3613 22.5211 17.309 22.5211 17.2493 22.5235C17.1895 22.6111 17.0551 22.7813 16.9207 22.9395C17.0725 22.9298 17.3663 22.9249 17.772 22.9249C19.1784 22.9249 20.4927 23.0271 21.9191 23.2509L21.4137 23.7301C20.3284 23.5647 19.0017 23.4698 17.8118 23.4698C17.3887 23.4698 16.9082 23.4844 16.4776 23.5087C16.3805 23.6182 16.1266 23.8858 16.0495 23.9685C16.6195 23.9101 17.2468 23.8834 17.9935 23.8834C19.0565 23.8834 20.0721 23.9515 21.0329 24.0901L20.5276 24.5645C19.8431 24.4818 19.0116 24.4332 18.2773 24.4332C16.383 24.4332 14.8895 24.8345 13.3461 25.7565C14.8173 27.2988 17.2269 28.2743 19.5618 28.2743H19.7808L18.9644 29.0456C15.5964 28.4276 12.0517 26.9802 9.0572 24.9975C6.17713 23.0976 5.169 22.5357 2.92123 21.5651L2.9063 21.0007L4.42722 21.638L4.94499 21.2366L9.91099 23.4601L9.58738 23.7131L7.03842 22.6306L6.787 22.8227L8.11131 23.5452C9.22899 24.1534 10.0803 24.4259 10.8669 24.4259C12.5869 24.4259 14.1303 23.2338 15.1259 21.1394C15.8752 21.0444 16.6743 21.0007 17.6351 21.0007C19.6066 21.0007 21.5208 21.1855 23.6889 21.5821L23.1612 22.0807C21.8121 21.8059 19.5194 21.5821 18.0558 21.5821ZM13.2291 35.4361C6.76873 35.4361 1.52818 30.3146 1.52818 24.0011C1.52818 17.6875 6.76873 12.566 13.2291 12.566C19.6895 12.566 24.9301 17.6875 24.9301 24.0011C24.9301 30.3146 19.6895 35.4361 13.2291 35.4361ZM13.2291 11.8362C6.34553 11.8362 0.78125 17.2738 0.78125 24.0011C0.78125 30.7283 6.34553 36.166 13.2291 36.166C20.1128 36.166 25.677 30.7283 25.677 24.0011C25.677 17.2738 20.1128 11.8362 13.2291 11.8362ZM46.1151 28.8439H53.2519V32.111H42.2741V15.8911H46.1151V28.8439ZM61.8824 20.4327H65.4626V32.111H62.0958V30.7671C61.5979 31.6708 60.5784 32.4585 58.7052 32.4585C55.6467 32.4585 54.0581 31.1146 54.0581 27.2682V20.4327H57.6384V27.1059C57.6384 28.6585 58.326 29.3535 59.7723 29.3535C61.0764 29.3535 61.8824 28.6585 61.8824 27.1059V20.4327ZM68.2131 19.9925C68.2131 17.1656 70.0389 15.6594 72.9077 15.6594C73.8326 15.6594 74.4252 15.7984 74.4252 15.7984V18.6253C74.4252 18.6253 73.9273 18.5791 73.5004 18.5791C72.3861 18.5791 71.7932 18.9498 71.7932 19.9693V20.4327H74.4252V23.2828H71.7932V32.111H68.2131V23.2828H66.4112V20.4327H68.2131V19.9925ZM80.7319 20.4327H83.4585V23.2828H80.7319V27.8243C80.7319 29.0756 81.3958 29.4 82.439 29.4C82.8657 29.4 83.4585 29.3305 83.4585 29.3305V32.1342C83.4585 32.1342 82.6287 32.3195 81.7514 32.3195C78.8826 32.3195 77.1517 31.0452 77.1517 28.2184V23.2828H75.3497V20.4327H77.1517V17.0265H80.7319V20.4327ZM91.3852 20.0851C94.4201 20.0851 96.0088 21.429 96.0088 25.2755V32.111H92.4284V25.4376C92.4284 23.8852 91.7408 23.1902 90.2472 23.1902C88.8956 23.1902 88.0895 23.8852 88.0895 25.4376V32.111H84.5093V15.9143H88.1132V21.5681C88.7297 20.7107 89.7018 20.0851 91.3852 20.0851ZM105.137 27.5694C105.137 28.8439 103.904 29.794 102.007 29.794C101.083 29.794 100.537 29.3769 100.537 28.589C100.537 27.9866 100.917 27.4768 102.126 27.3147L104.189 27.0365C104.544 26.9901 104.924 26.9207 105.137 26.8512V27.5694ZM103.146 20.0852C99.6127 20.0852 97.9055 21.406 97.7633 23.8853H101.249C101.296 23.2364 101.675 22.7498 103.146 22.7498C104.45 22.7498 105.066 23.167 105.066 23.7925C105.066 24.3488 104.71 24.5572 103.833 24.6499L101.557 24.8816C98.4745 25.2059 97.0757 26.4572 97.0757 28.7281C97.0757 30.8366 98.4034 32.4585 101.225 32.4585C103.146 32.4585 104.284 31.8561 105.279 30.6511V32.111H108.551V24.4414C108.551 21.2206 106.631 20.0852 103.146 20.0852ZM116.83 20.0851C119.936 20.0851 121.525 21.429 121.525 25.2755V32.111H117.944V25.4376C117.944 23.8852 117.257 23.1902 115.763 23.1902C114.412 23.1902 113.606 23.8852 113.606 25.4376V32.111H110.025V20.4327H113.392V21.7767C113.89 20.8729 114.909 20.0851 116.83 20.0851ZM129.077 24.7889C132.112 25.1829 133.63 26.1097 133.63 28.5427C133.63 30.9989 131.851 32.4586 128.081 32.4586C123.98 32.4586 122.533 30.8599 122.462 28.5194H125.995C126.09 29.3769 126.706 29.794 128.081 29.794C129.48 29.794 130.049 29.4695 130.049 28.8208C130.049 28.2184 129.575 27.9403 128.342 27.7781L127.086 27.6158C124.454 27.2683 122.936 26.272 122.936 23.9548C122.936 21.7303 124.62 20.0851 128.153 20.0851C131.424 20.0851 133.179 21.3595 133.345 23.8852H129.86C129.741 23.2134 129.362 22.7962 128.153 22.7962C126.967 22.7962 126.517 23.1902 126.517 23.7C126.517 24.2096 126.801 24.4877 127.821 24.6268L129.077 24.7889ZM142.592 27.5697C142.592 28.8439 141.359 29.794 139.462 29.794C138.538 29.794 137.992 29.3769 137.992 28.589C137.992 27.9866 138.372 27.4768 139.581 27.3147L141.644 27.0365C141.999 26.9904 142.379 26.9207 142.592 26.8512V27.5697ZM140.6 20.0852C137.068 20.0852 135.36 21.406 135.218 23.8853H138.704C138.751 23.2364 139.13 22.75 140.6 22.75C141.904 22.75 142.521 23.167 142.521 23.7927C142.521 24.3488 142.165 24.5572 141.288 24.6499L139.012 24.8816C135.93 25.2061 134.53 26.4573 134.53 28.7281C134.53 30.8366 135.858 32.4585 138.68 32.4585C140.6 32.4585 141.738 31.8561 142.734 30.6511V32.111H146.006V24.4414C146.006 21.2207 144.086 20.0852 140.6 20.0852Z"></path>
</svg>
