<svg xmlns="http://www.w3.org/2000/svg" fill="none" viewBox="0 0 118 48" height="48" width="118">
<path fill="black" d="M17.4714 27.2047C17.4714 17.4185 40.1452 9.49924 68.0885 9.49924C80.1932 9.49924 91.2738 10.9747 99.9763 13.4438C90.702 9.52935 76.6401 7 60.922 7C32.9486 7 10.3049 14.9193 10.3049 24.7054C10.3049 30.2459 17.622 35.2143 29.0341 38.4362C21.8074 35.425 17.4714 31.4805 17.4714 27.2047Z" clip-rule="evenodd" fill-rule="evenodd"></path>
<path fill="black" d="M20.9337 10.3423C8.97949 13.233 1 18.4723 1 24.4946C1 30.5771 8.49771 35.6056 20.753 38.4663C11.1776 34.8529 5.96836 30.0953 5.96836 24.4644C5.96836 18.924 11.6895 13.9255 20.9337 10.3423Z" clip-rule="evenodd" fill-rule="evenodd"></path>
<path fill="black" d="M31.4424 25.3675V20.2486H34.2427C35.0257 20.2486 35.6881 20.4895 36.23 21.0014C36.7721 21.5133 37.0431 22.1155 37.0431 22.808C37.0431 23.5007 36.7721 24.1028 36.23 24.6147C35.6881 25.1266 35.0257 25.3675 34.2427 25.3675H31.4424ZM37.9166 33.2569C37.194 33.9193 36.2906 34.2807 35.2367 34.2807H31.4728V27.355H35.2367C36.2906 27.355 37.194 27.6863 37.9166 28.3789C38.6393 29.0413 39.0308 29.8543 39.0308 30.8179C39.0308 31.7814 38.6393 32.5643 37.9166 33.2569ZM39.4221 26.9635C38.9403 26.542 38.4284 26.1807 37.8864 25.9397C38.7596 25.0665 39.2113 24.0427 39.2113 22.8383C39.2113 21.5736 38.7295 20.4896 37.766 19.6164C36.8024 18.7431 35.628 18.2915 34.273 18.2915H30.3886C30.0876 18.2915 29.8467 18.3818 29.6359 18.5926C29.4251 18.7732 29.3047 19.0142 29.3047 19.2851V35.2742C29.3047 35.5453 29.4251 35.7861 29.6359 35.9668C29.8467 36.1475 30.0876 36.2679 30.3886 36.2679H35.2366C36.8626 36.2679 38.2778 35.7259 39.4221 34.672C40.5663 33.6181 41.1685 32.3233 41.1685 30.8178C41.1685 29.3122 40.5964 28.0174 39.4221 26.9635Z" clip-rule="evenodd" fill-rule="evenodd"></path>
<path fill="black" d="M44.0898 19.8271C43.7284 19.8271 43.4273 19.9477 43.1563 20.1885C42.8853 20.4294 42.7649 20.7305 42.7649 21.0617C42.7649 21.393 42.8853 21.6941 43.1563 21.935C43.4273 22.1759 43.7284 22.2963 44.0898 22.2963C44.4511 22.2963 44.7522 22.1759 45.0232 21.935C45.2943 21.6941 45.4147 21.393 45.4147 21.0617C45.4147 20.7305 45.2943 20.4294 45.0232 20.1885C44.7522 19.9477 44.421 19.8271 44.0898 19.8271Z" clip-rule="evenodd" fill-rule="evenodd"></path>
<path fill="black" d="M44.0892 23.5913C43.7881 23.5913 43.5471 23.6817 43.3364 23.8925C43.1256 24.0731 43.0051 24.3141 43.0051 24.585V35.2444C43.0051 35.5155 43.1256 35.7563 43.3364 35.937C43.5471 36.1176 43.7881 36.2381 44.0892 36.2381C44.3903 36.2381 44.6312 36.1478 44.8419 35.937C45.0528 35.7563 45.1732 35.5155 45.1732 35.2444V24.585C45.1732 24.3141 45.0528 24.0731 44.8419 23.8925C44.6312 23.6817 44.3601 23.5913 44.0892 23.5913Z" clip-rule="evenodd" fill-rule="evenodd"></path>
<path fill="black" d="M53.8752 34.2507C52.5804 34.2507 51.4363 33.8291 50.5028 32.986C49.5694 32.1429 49.1177 31.1191 49.1177 29.9146C49.1177 28.7101 49.5694 27.6864 50.5028 26.8432C51.4363 26.0001 52.5503 25.5786 53.8752 25.5786C55.17 25.5786 56.3143 26.0001 57.2477 26.8432C58.1812 27.6864 58.6329 28.7101 58.6329 29.9146C58.6329 31.1191 58.1812 32.1429 57.2477 32.986C56.3143 33.8291 55.2001 34.2507 53.8752 34.2507ZM59.717 18.2314C59.416 18.2314 59.175 18.3218 58.9643 18.5326C58.7535 18.7132 58.6331 18.9542 58.6331 19.2252V25.3076C57.3082 24.1634 55.7122 23.5612 53.8754 23.5612C51.9784 23.5612 50.3524 24.1935 48.9974 25.3979C47.6424 26.6325 46.98 28.1381 46.98 29.8845C46.98 31.631 47.6725 33.1366 48.9974 34.3711C50.3524 35.6057 51.9784 36.2079 53.8754 36.2079C55.7724 36.2079 57.3985 35.5756 58.7535 34.3711C60.1085 33.1366 60.771 31.631 60.771 29.8845V19.2252C60.771 18.9542 60.6505 18.7132 60.4397 18.5326C60.259 18.352 60.0182 18.2314 59.717 18.2314Z" clip-rule="evenodd" fill-rule="evenodd"></path>
<path fill="black" d="M69.654 24.2538H66.8235V23.6816C66.8235 21.363 68.058 20.2188 70.5874 20.2188C70.8886 20.2188 71.1294 20.1285 71.3402 19.9177C71.551 19.7371 71.6714 19.4961 71.6714 19.2252C71.6714 18.9542 71.551 18.7132 71.3402 18.5326C71.1294 18.352 70.8886 18.2314 70.5874 18.2314C66.6428 18.2314 64.6555 20.0683 64.6555 23.6816V24.2538H63.7823C63.4812 24.2538 63.2403 24.3441 63.0295 24.5548C62.8188 24.7355 62.6982 24.9764 62.6982 25.2474C62.6982 25.5185 62.8188 25.7593 63.0295 25.94C63.2403 26.1206 63.4812 26.2411 63.7823 26.2411H64.6555V35.2443C64.6555 35.5154 64.776 35.7562 64.9867 35.9369C65.1975 36.1176 65.4384 36.238 65.7395 36.238C66.0406 36.238 66.2815 36.1477 66.4923 35.9369C66.703 35.7562 66.8235 35.5154 66.8235 35.2443V26.2411H69.654C69.9551 26.2411 70.196 26.1507 70.4068 25.94C70.6175 25.7593 70.738 25.5185 70.738 25.2474C70.738 24.9764 70.6175 24.7355 70.4068 24.5548C70.196 24.3441 69.9551 24.2538 69.654 24.2538Z" clip-rule="evenodd" fill-rule="evenodd"></path>
<path fill="black" d="M78.1746 34.2508C76.8798 34.2508 75.7355 33.8292 74.8021 32.9861C73.8686 32.1429 73.417 31.1192 73.417 29.9147C73.417 28.7103 73.8686 27.6865 74.8021 26.8434C75.7355 26.0003 76.8497 25.5787 78.1746 25.5787C79.4693 25.5787 80.6136 26.0003 81.5472 26.8434C82.4808 27.6865 82.932 28.7103 82.932 29.9147C82.932 31.1192 82.4808 32.1429 81.5472 32.9861C80.6136 33.8292 79.4693 34.2508 78.1746 34.2508ZM83.0529 25.4281C81.6977 24.1935 80.0718 23.5913 78.1748 23.5913C76.2778 23.5913 74.6518 24.2236 73.2967 25.4281C71.9417 26.6627 71.2793 28.1682 71.2793 29.9147C71.2793 31.6612 71.9719 33.1667 73.2967 34.4013C74.6518 35.6359 76.2778 36.2381 78.1748 36.2381C80.0718 36.2381 81.6977 35.6058 83.0529 34.4013C84.4081 33.1667 85.0702 31.6612 85.0702 29.9147C85.0702 28.1682 84.3778 26.6627 83.0529 25.4281Z" clip-rule="evenodd" fill-rule="evenodd"></path>
<path fill="black" d="M93.4106 34.2508C92.1161 34.2508 90.9717 33.8292 90.0381 32.9861C89.1053 32.1429 88.6533 31.1192 88.6533 29.9147C88.6533 28.7103 89.1053 27.6865 90.0381 26.8434C90.9717 26.0003 92.0857 25.5787 93.4106 25.5787C94.706 25.5787 95.8496 26.0003 96.7832 26.8434C97.7168 27.6865 98.1688 28.7103 98.1688 29.9147C98.1688 31.1192 97.7168 32.1429 96.7832 32.9861C95.8496 33.8292 94.706 34.2508 93.4106 34.2508ZM98.2895 25.4281C96.9343 24.1935 95.3083 23.5913 93.4108 23.5913C91.5141 23.5913 89.8882 24.2236 88.5329 25.4281C87.1785 26.6627 86.5156 28.1682 86.5156 29.9147C86.5156 31.6612 87.208 33.1667 88.5329 34.4013C89.8882 35.6359 91.5141 36.2381 93.4108 36.2381C95.3083 36.2381 96.9343 35.6058 98.2895 34.4013C99.644 33.1667 100.307 31.6612 100.307 29.9147C100.307 28.1682 99.6144 26.6627 98.2895 25.4281Z" clip-rule="evenodd" fill-rule="evenodd"></path>
<path fill="black" d="M108.648 34.2507C107.353 34.2507 106.209 33.8291 105.275 32.986C104.341 32.1429 103.89 31.1191 103.89 29.9146C103.89 28.7101 104.341 27.6864 105.275 26.8432C106.209 26.0001 107.323 25.5786 108.648 25.5786C109.972 25.5786 111.087 26.0001 112.02 26.8432C112.954 27.6864 113.405 28.7101 113.405 29.9146C113.405 31.1191 112.954 32.1429 112.02 32.986C111.087 33.8291 109.942 34.2507 108.648 34.2507ZM115.212 18.5326C115.001 18.352 114.76 18.2314 114.459 18.2314C114.158 18.2314 113.917 18.3218 113.706 18.5326C113.496 18.7132 113.376 18.9542 113.376 19.2252V25.3076C112.051 24.1634 110.454 23.5612 108.617 23.5612C106.721 23.5612 105.095 24.1935 103.739 25.3979C102.385 26.6325 101.722 28.1381 101.722 29.8845C101.722 31.631 102.415 33.1366 103.739 34.3711C105.095 35.6057 106.721 36.2079 108.617 36.2079C110.515 36.2079 112.141 35.5756 113.496 34.3711C114.851 33.1366 115.513 31.631 115.513 29.8845V19.2252C115.543 18.9542 115.423 18.7132 115.212 18.5326Z" clip-rule="evenodd" fill-rule="evenodd"></path>
</svg>
