<svg xmlns="http://www.w3.org/2000/svg" fill="none" viewBox="0 0 48 48" height="48" width="48">
<path fill="black" d="M0.888672 23.9186C0.888672 16.4707 6.22442 10.2756 13.2628 8.98549C13.3654 8.96668 13.4664 9.02588 13.5015 9.12452L15.3604 14.3552C15.4088 14.4916 15.3118 14.6364 15.1681 14.6478C10.3663 15.0301 6.58821 19.0683 6.58821 23.9936C6.58821 29.1715 10.7637 33.3691 15.9145 33.3691C18.6294 33.3691 21.0734 32.2029 22.7778 30.3418L29.5818 21.5871C30.561 20.3273 32.3709 20.1041 33.6244 21.0886C34.8779 22.0731 35.1003 23.8925 34.1212 25.1523L28.6604 32.1785C25.9681 36.3438 21.2986 39.0985 15.9891 39.0985C7.64936 39.0985 0.888672 32.3022 0.888672 23.9186Z"></path>
<path fill="black" d="M46.6483 24.0688C46.6483 31.7515 40.9708 38.1012 33.6035 39.1092C33.5042 39.1228 33.4088 39.0644 33.3746 38.9698L31.441 33.6256C31.3958 33.5007 31.4903 33.3691 31.6226 33.3691C36.7734 33.3691 40.949 29.1716 40.949 23.9937C40.949 18.8158 36.7734 14.6183 31.6226 14.6183C28.9073 14.6183 26.4629 15.7849 24.7585 17.6466L17.9552 26.4003C16.976 27.6601 15.1661 27.8833 13.9126 26.8988C12.6591 25.9143 12.4367 24.0949 13.4158 22.8351L18.8765 15.809C21.5688 11.6437 26.2383 8.88892 31.5479 8.88892C39.8876 8.88892 46.6483 15.6852 46.6483 24.0688Z"></path>
</svg>
