<svg xmlns="http://www.w3.org/2000/svg" fill="none" viewBox="0 0 48 48" height="48" width="48">
<path fill="black" d="M44.5021 26.2826C43.6517 25.6553 42.3692 25.1953 40.557 25.1953C37.3089 25.1953 34.1445 27.2445 34.1445 32.012C34.1445 36.5704 37.3089 38.7033 40.4316 38.7033C43.7075 38.7033 45.7846 36.6819 45.7846 33.7267C45.7846 31.8587 44.6136 30.5622 42.2577 30.5622H41.5746C40.348 30.5622 39.4 31.1338 39.4 32.3884C39.4 33.5315 40.4316 34.0752 41.1983 34.0752C41.8534 34.0752 42.1183 34.1866 42.1183 34.4794C42.1183 34.8419 41.7698 35.0788 40.9195 35.0788C39.3442 35.0788 38.2709 34.0054 38.2709 32.012C38.2709 29.7956 39.7346 28.987 40.8637 28.987C42.2438 28.987 42.4668 29.684 43.4287 29.684C44.5439 29.684 45.2967 28.7779 45.2967 27.8578C45.2967 27.1748 44.99 26.6451 44.5021 26.2826Z"></path>
<path fill="black" d="M33.0563 27.5512V36.2359C33.0563 37.616 32.2478 38.7173 30.7841 38.7173C29.9338 38.7173 29.1392 38.3827 28.4003 36.9468L26.4627 33.197C26.3232 32.9321 26.2256 32.8625 26.0863 32.8625C25.8911 32.8625 25.7935 33.0018 25.7935 33.3224L25.8075 36.3614C25.8075 37.6718 25.0547 38.7173 23.6467 38.7173C22.2527 38.7173 21.5 37.6718 21.5 36.3614V27.6767C21.5 26.2966 22.3085 25.1953 23.7722 25.1953C24.6504 25.1953 25.4172 25.5299 26.156 26.9657L28.0937 30.7156C28.233 30.9805 28.3306 31.0502 28.4701 31.0502C28.6652 31.0502 28.7628 30.9108 28.7628 30.5902L28.7488 27.5512C28.7488 26.2408 29.5016 25.1953 30.9096 25.1953C32.3036 25.1953 33.0563 26.2408 33.0563 27.5512Z"></path>
<path fill="black" d="M6.93122 36.2498V34.0334C6.93122 33.8382 7.01485 33.6988 7.21004 33.6988C7.46098 33.6988 7.53063 33.9637 7.60035 34.0891C8.03251 34.9534 8.75738 36.7238 9.6217 37.6717C10.2072 38.313 10.9321 38.7173 11.6988 38.7173C12.9952 38.7173 14.0825 37.5881 14.0825 36.3753C14.0825 35.6226 13.7619 35.0649 13.1485 34.3958C12.3679 33.5455 11.4479 32.4302 11.1133 31.9144C10.9878 31.7193 10.9738 31.5938 10.9738 31.5381C10.9738 31.3848 11.0575 31.2732 11.2248 31.1198C11.6151 30.7574 12.577 29.8513 13.1067 29.0288C13.511 28.4016 13.6783 27.83 13.6783 27.356C13.6783 26.1433 12.577 25.1953 11.3781 25.1953C10.6114 25.1953 9.88654 25.6275 9.39863 26.4221C8.74348 27.4815 8.07436 28.9731 7.51673 29.5307C7.37728 29.6701 7.30764 29.698 7.19606 29.698C7.01485 29.698 6.93122 29.5725 6.93122 29.3774V27.6627C6.93122 26.2966 6.12273 25.1953 4.65901 25.1953C3.18131 25.1953 2.38672 26.2966 2.38672 27.6627V36.2498C2.38672 37.616 3.18131 38.7173 4.65901 38.7173C6.12273 38.7173 6.93122 37.616 6.93122 36.2498Z"></path>
<path fill="black" d="M44.6269 40.125C45.4354 40.125 45.7978 40.5153 45.7978 41.1984C45.7978 42.3972 44.6966 44.07 42.5219 45.2968C38.8974 47.346 32.6801 47.9315 24.0791 47.9315C15.478 47.9315 9.26077 47.346 5.63625 45.2968C3.46163 44.07 2.36035 42.3972 2.36035 41.1984C2.36035 40.5153 2.72279 40.125 3.53136 40.125H44.6269Z"></path>
<path fill="black" d="M44.6269 13.508H3.53136C2.72279 13.508 2.36035 13.0898 2.36035 12.337C2.36035 7.87615 9.06557 0 24.0791 0C38.9532 0 45.7978 7.87615 45.7978 12.337C45.7978 13.0898 45.4354 13.508 44.6269 13.508Z"></path>
<path fill="black" d="M13.0385 24.3823C10.7802 24.3823 9.59525 23.0301 9.59525 21.3294V16.6316C9.59525 15.7952 10.0832 15.1261 10.9754 15.1261C11.8675 15.1261 12.3694 15.7952 12.3694 16.6316V21.1761C12.3694 21.5106 12.5367 21.901 13.0385 21.901C13.5404 21.901 13.7355 21.5106 13.7355 21.1761V16.6316C13.7355 15.7952 14.2234 15.1261 15.1156 15.1261C16.0077 15.1261 16.4957 15.7952 16.4957 16.6316V21.3294C16.4957 23.0301 15.2968 24.3823 13.0385 24.3823ZM39.009 22.8767C39.009 23.7132 39.4969 24.3823 40.3891 24.3823C41.2812 24.3823 41.7691 23.7132 41.7691 22.8767V21.4967C41.7691 21.2876 41.8528 21.1343 42.0758 21.1343C42.271 21.1343 42.3546 21.3015 42.3964 21.4967C42.5079 22.1101 42.7031 23.0719 43.0794 23.5598C43.5535 24.1871 43.9995 24.3823 44.4457 24.3823C45.1705 24.3823 45.7978 23.8108 45.7978 23.0998C45.7978 22.6259 45.6026 22.2773 45.3517 21.9568C45.1148 21.664 44.5293 20.9112 44.4178 20.5209C44.3759 20.3815 44.3898 20.2839 44.5153 20.1724C44.9475 19.7682 45.4493 19.1408 45.4493 18.0256C45.4493 16.1158 43.9856 15.1539 42.2152 15.1539H40.64C39.5387 15.1539 39.009 15.7952 39.009 16.6595V22.8767ZM31.2164 15.7533C30.8819 15.4885 29.9618 15.0703 28.5818 15.0703C26.4211 15.0703 24.3161 16.4922 24.3161 19.7821C24.3161 22.9326 26.4211 24.3963 28.4981 24.3963C30.6867 24.3963 32.0668 23.0022 32.0668 20.9112C32.0668 19.6148 31.2861 18.7226 29.7248 18.7226H29.2788C28.4563 18.7226 27.815 19.1129 27.815 19.9912C27.815 20.7719 28.4981 21.1482 29.0697 21.1482C29.4321 21.1482 29.6412 21.3155 29.6412 21.5664C29.6412 21.901 29.3484 22.124 28.8187 22.124C27.7314 22.124 27.0623 21.2876 27.0623 19.7821C27.0623 18.2486 28.038 17.6911 28.7909 17.6911C29.7108 17.6911 29.8642 18.0395 30.5054 18.0395C31.2443 18.0395 31.7462 17.4262 31.7462 16.785C31.7462 16.311 31.537 16.0043 31.2164 15.7533ZM42.1595 19.2803H41.8249C41.5879 19.2803 41.4764 19.1408 41.4764 18.9596V17.7608C41.4764 17.5795 41.5879 17.468 41.8249 17.468H42.1595C42.8425 17.468 43.0516 17.928 43.0516 18.3602C43.0516 18.7645 42.8425 19.2803 42.1595 19.2803ZM35.3845 21.5943C35.3845 21.7755 35.496 21.9149 35.7331 21.9149H37.0852C37.8101 21.9149 38.3817 22.3471 38.3817 23.1138C38.3817 23.8804 37.8101 24.3126 37.0852 24.3126H34.4227C33.3214 24.3126 32.7916 23.6713 32.7916 22.8071V16.6595C32.7916 15.7952 33.3214 15.1539 34.4227 15.1539H37.0852C37.8101 15.1539 38.3817 15.5861 38.3817 16.3528C38.3817 17.1195 37.8101 17.5516 37.0852 17.5516H35.7331C35.496 17.5516 35.3845 17.6911 35.3845 17.8723V18.2766C35.3845 18.4578 35.496 18.5972 35.7331 18.5972H36.6949C37.364 18.5972 37.8938 19.0014 37.8938 19.7123C37.8938 20.4233 37.364 20.8276 36.6949 20.8276H35.7331C35.496 20.8276 35.3845 20.967 35.3845 21.1482V21.5943ZM20.5383 19.2803H20.2037C19.9668 19.2803 19.8552 19.1408 19.8552 18.9596V17.7608C19.8552 17.5795 19.9668 17.468 20.2037 17.468H20.5383C21.2213 17.468 21.4304 17.928 21.4304 18.3602C21.4304 18.7645 21.2213 19.2803 20.5383 19.2803ZM3.99131 24.3126H5.95692C7.81095 24.3126 8.94011 23.0719 8.94011 21.5246C8.94011 20.3257 8.20126 19.7821 8.03394 19.6427C7.96429 19.5869 7.89457 19.5311 7.89457 19.4754C7.89457 19.4056 7.92244 19.3778 8.00606 19.2942C8.31275 18.9875 8.60554 18.4578 8.60554 17.7189C8.60554 16.0461 7.40666 15.1539 5.65023 15.1539H3.99131C2.89003 15.1539 2.36035 15.7952 2.36035 16.6595V22.8071C2.36035 23.6713 2.89003 24.3126 3.99131 24.3126ZM5.16232 18.8202C4.92536 18.8202 4.81378 18.6808 4.81378 18.4996V17.5516C4.81378 17.3704 4.92536 17.231 5.16232 17.231H5.48291C6.04054 17.231 6.20778 17.6353 6.20778 18.0256C6.20778 18.402 6.04054 18.8202 5.48291 18.8202H5.16232ZM5.16232 20.4652H5.55263C6.17991 20.4652 6.3612 20.9252 6.3612 21.3434C6.3612 21.7616 6.17991 22.2216 5.55263 22.2216H5.16232C4.92536 22.2216 4.81378 22.0822 4.81378 21.901V20.7857C4.81378 20.6045 4.92536 20.4652 5.16232 20.4652ZM23.7306 21.9568C23.4936 21.664 22.9081 20.9112 22.7966 20.5209C22.7548 20.3815 22.7687 20.2839 22.8941 20.1724C23.3263 19.7682 23.8282 19.1408 23.8282 18.0256C23.8282 16.1158 22.3645 15.1539 20.594 15.1539H19.0188C17.9175 15.1539 17.3878 15.7952 17.3878 16.6595V22.8767C17.3878 23.7132 17.8757 24.3823 18.7679 24.3823C19.6601 24.3823 20.148 23.7132 20.148 22.8767V21.4967C20.148 21.2876 20.2316 21.1343 20.4546 21.1343C20.6498 21.1343 20.7334 21.3015 20.7753 21.4967C20.9007 22.1101 21.082 23.0719 21.4584 23.5598C21.9323 24.1871 22.3783 24.3823 22.8245 24.3823C23.5494 24.3823 24.1766 23.8108 24.1766 23.0998C24.1766 22.6259 23.9815 22.2773 23.7306 21.9568Z"></path>
<path fill="black" d="M19.8839 27.83C19.8839 26.3662 19.0335 25.1953 17.4722 25.1953C15.911 25.1953 15.0605 26.3662 15.0605 27.83V36.0825C15.0605 37.5462 15.911 38.7172 17.4722 38.7172C19.0335 38.7172 19.8839 37.5462 19.8839 36.0825V27.83Z"></path>
</svg>
