<svg xmlns="http://www.w3.org/2000/svg" fill="none" viewBox="0 0 104 48" height="48" width="104">
<path fill="black" d="M40.9413 14.0415H21.0234V33.9594H40.9413V14.0415ZM28.7441 28.9917L29.1767 27.544L32.7044 27.5606L33.137 28.9917H35.7744L32.5213 19.0078H29.443L26.1649 28.9917H28.7441ZM29.7758 25.5888L30.9405 21.8698L32.1053 25.5888H29.7758ZM19.9179 14.0416H0V33.9594H19.9179V14.0416ZM13.7776 28.976H11.1069L8.56104 24.3766V28.9844H6.13995V19.0255H8.56104V23.6248L11.1069 19.0254H13.7776L11.007 24.0007L13.7776 28.976ZM42.0387 14.0415H61.9566V33.9594H42.0387V14.0415ZM53.2452 28.9917H50.8075V24.5904L47.5377 19.0078H50.4164L52.0305 22.0695L53.6196 19.0078H56.4567L53.2452 24.5904V28.9917ZM82.9801 14.0415H63.0623V33.9594H82.9801V14.0415ZM70.7828 28.9917L71.2155 27.544L74.7432 27.5606L75.1758 28.9917H77.8132L74.5601 19.0078H71.4817L68.2037 28.9917H70.7828ZM71.8145 25.5888L72.9793 21.8698L74.1441 25.5888H71.8145ZM84.0771 14.0415H103.995V33.9594H84.0771V14.0415ZM95.1839 28.976H97.8546L95.0841 24.0007L97.8546 19.0254H95.1839L92.6383 23.6244V19.0254H90.2173V28.9843H92.6383V24.3769L95.1839 28.976Z" clip-rule="evenodd" fill-rule="evenodd"></path>
</svg>
