<svg xmlns="http://www.w3.org/2000/svg" fill="none" viewBox="0 0 42 48" height="48" width="42">
<g clip-path="url(#clip0_728_4812)">
<path fill="black" d="M21 43.068C10.542 43.068 1.974 34.458 1.974 24C1.974 21.648 2.394 19.422 3.192 17.322L14.322 39.708C14.448 40.002 14.658 40.254 14.994 40.254C15.33 40.254 15.54 40.002 15.666 39.708L20.79 28.242C20.832 28.116 20.916 27.99 21.042 27.99C21.168 27.99 21.21 28.116 21.294 28.242L26.418 39.708C26.544 40.002 26.754 40.254 27.09 40.254C27.426 40.254 27.636 40.002 27.762 39.708L38.892 17.322C39.69 19.422 40.11 21.648 40.11 24C40.026 34.458 31.458 43.068 21 43.068ZM21 19.674C20.874 19.674 20.832 19.548 20.748 19.422L14.784 5.982C16.716 5.268 18.816 4.89 21 4.89C23.184 4.89 25.284 5.268 27.216 5.982L21.252 19.422C21.168 19.59 21.126 19.674 21 19.674ZM14.91 33.492C14.784 33.492 14.742 33.366 14.658 33.24L4.998 13.752C6.72 11.106 9.03 8.88 11.844 7.326L18.816 22.824C18.9 23.076 19.11 23.16 19.32 23.16H22.68C22.932 23.16 23.1 23.118 23.226 22.824L30.198 7.326C32.97 8.88 35.322 11.106 37.044 13.752L27.3 33.24C27.258 33.366 27.174 33.492 27.048 33.492C26.922 33.492 26.88 33.366 26.796 33.24L23.142 24.924C23.016 24.63 22.848 24.588 22.596 24.588H19.236C18.984 24.588 18.816 24.63 18.69 24.924L15.162 33.24C15.12 33.366 15.036 33.492 14.91 33.492ZM21 45C32.634 45 42 35.634 42 24C42 12.366 32.634 3 21 3C9.366 3 0 12.366 0 24C0 35.634 9.366 45 21 45Z"></path>
</g>
<defs>
<clipPath id="clip0_728_4812">
<rect fill="white" height="48" width="42"></rect>
</clipPath>
</defs>
</svg>
