<svg xmlns="http://www.w3.org/2000/svg" fill="none" viewBox="0 0 128 48" height="48" width="128">
<path fill="black" d="M12.4747 25.0807C12.112 24.9956 11.7547 24.9424 11.3973 24.9424H7.64267V27.8468H11.472C12.1227 27.8468 12.6613 27.7244 13.0667 27.4744C13.456 27.2351 13.6427 26.8733 13.6427 26.3733C13.6427 26.0063 13.536 25.7296 13.3227 25.5328C13.104 25.32 12.816 25.1711 12.4747 25.0807ZM23.7973 20.8676C23.712 21.1123 23.6213 21.3411 23.5307 21.5751C23.3867 21.9369 23.2427 22.2826 23.0933 22.6071L21.9467 25.219H25.664L24.4853 22.5486C24.2453 22.006 24.016 21.4475 23.7973 20.8676ZM12.5653 22.6177C12.9013 22.3943 13.0667 22.0858 13.0667 21.6815C13.0667 21.224 12.896 20.9155 12.5493 20.724C12.1653 20.5219 11.6907 20.4155 11.136 20.4155H7.648V22.9742H11.3227C11.792 22.9795 12.208 22.8518 12.5653 22.6177ZM52.8587 22.7082L61.7973 11L53.9147 14.1438L3.24267 14.1279C1.46133 14.1279 0 15.5854 0 17.3621V30.9481C0 32.7301 1.46133 34.1823 3.24267 34.1823H43.3333L51.3813 24.0274L46.8107 18.4739H49.488L52.8587 22.7082ZM15.328 28.0809C15.072 28.5224 14.7307 28.8735 14.3147 29.1288C13.9093 29.3788 13.4453 29.5597 12.9493 29.6607C12.4587 29.7618 11.968 29.815 11.472 29.815H5.61067V18.4632H11.1787C12.464 18.4632 13.4453 18.7132 14.1067 19.208C14.784 19.708 15.1253 20.4527 15.1253 21.3996C15.1253 21.9262 14.9813 22.405 14.6933 22.8252C14.4747 23.1497 14.176 23.421 13.792 23.6231C14.0533 23.7348 14.304 23.8785 14.544 24.0434C14.896 24.2881 15.184 24.6125 15.3867 25.0009C15.6 25.3945 15.7067 25.8679 15.7067 26.4159C15.7173 27.0755 15.584 27.634 15.328 28.0809ZM27.7173 29.815L26.5333 27.1659H21.0773L19.8933 29.815H17.7707L22.8107 18.4632H24.9013L24.944 18.559L29.92 29.815H27.7173ZM43.968 29.815H42.0747L34.5867 21.5538L34.7307 23.0699C34.7947 23.7295 34.8267 24.4051 34.8267 25.07V29.815H32.8V18.4632H34.6613L42.1333 26.9052C42.096 26.5329 42.0587 26.1446 42.032 25.7456C41.9893 25.1605 41.9627 24.554 41.952 23.9476C41.9413 23.3465 41.9307 22.7773 41.9307 22.2454V18.4632H43.9573V29.8203H43.968V29.815Z"></path>
<path fill="black" d="M83.7172 20.8677C83.6319 21.1124 83.5412 21.3411 83.4505 21.5752C83.3065 21.9369 83.1625 22.2826 83.0132 22.6071L81.8665 25.219H85.5839L84.4052 22.5486C84.1705 22.0113 83.9359 21.4528 83.7172 20.8677ZM99.8985 21.2294C99.7172 20.9794 99.4719 20.7772 99.1732 20.6442C98.8745 20.5006 98.5332 20.4315 98.1705 20.4315H94.7465V23.7615H98.3785C98.7145 23.7615 99.0239 23.6817 99.2905 23.5221C99.5572 23.3572 99.7812 23.1497 99.9359 22.8891C100.091 22.6337 100.176 22.3518 100.176 22.0592C100.165 21.7454 100.08 21.4741 99.8985 21.2294ZM117.376 14.1226H61.8879L54.0532 24.1711L58.7252 29.815H56.0479L52.6025 25.5169L43.1519 37.5974L51.7865 34.1557L117.371 34.1664C119.157 34.1664 120.613 32.7088 120.613 30.9321V17.3515C120.619 15.5801 119.157 14.1226 117.376 14.1226ZM72.5972 29.815H71.1945L68.3519 23.1816L65.5199 29.815H64.0692L60.1172 18.4633H62.3092L64.6025 25.2403C64.6985 25.5275 64.7892 25.8201 64.8692 26.1233C64.9065 26.2457 64.9385 26.368 64.9705 26.485C65.0132 26.3627 65.0559 26.2403 65.1092 26.1127C65.2212 25.8148 65.3385 25.5116 65.4665 25.2137L67.5145 20.3729H69.3225L71.3225 25.1977C71.4985 25.6286 71.6585 26.0488 71.8025 26.4425C71.8399 26.3201 71.8772 26.1978 71.9145 26.0701C72.0105 25.7722 72.1065 25.4637 72.2132 25.1605L74.6345 18.4633H76.8159L72.5972 29.815ZM87.6372 29.815L86.4532 27.1659H80.9919L79.8079 29.815H77.6852L82.7252 18.4633H84.8159L84.8585 18.559L89.8399 29.815H87.6319H87.6372ZM100.48 29.815L97.7172 25.719H94.7412V29.815H92.7145V18.4633H98.5652C99.2105 18.4633 99.8185 18.6175 100.379 18.926C100.933 19.2346 101.397 19.6548 101.749 20.1921C102.101 20.7294 102.283 21.3677 102.283 22.0805C102.283 22.8359 102.043 23.538 101.568 24.1551C101.141 24.719 100.603 25.1339 99.9625 25.4052L102.976 29.8416L100.48 29.815ZM115.008 20.4261H108.517V23.0167H114.139V24.9796H108.517V27.8521H115.008V29.815H106.485V18.4579H115.008V20.4261Z"></path>
<path fill="black" d="M123.728 34.7932C122.901 34.7932 122.224 34.1602 122.224 33.2931C122.224 32.4207 122.901 31.7983 123.728 31.7983C124.549 31.7983 125.232 32.4048 125.232 33.2931C125.227 34.1602 124.549 34.7932 123.728 34.7932ZM123.728 32.0643C123.045 32.0643 122.501 32.5643 122.501 33.2931C122.501 34.0112 123.04 34.5219 123.728 34.5219C124.405 34.5219 124.944 34.0112 124.944 33.2931C124.944 32.559 124.405 32.0643 123.728 32.0643ZM124.155 34.0485L123.904 33.5059H123.451V34.0485H123.168V32.708C123.168 32.559 123.248 32.5058 123.392 32.5058H123.893C124.181 32.5058 124.363 32.6814 124.363 32.9473C124.363 33.0325 124.336 33.1388 124.267 33.2399L124.149 33.4155L124.459 34.0485H124.155ZM123.84 32.7292H123.445V33.2772H123.925L124.021 33.1388C124.064 33.0644 124.08 33.0059 124.08 32.9527C124.08 32.8144 123.979 32.7292 123.84 32.7292Z"></path>
</svg>
