<svg xmlns="http://www.w3.org/2000/svg" fill="none" viewBox="0 0 77 48" height="48" width="77">
<g clip-path="url(#clip0_728_4808)">
<path fill="black" d="M13.304 10.6982H14.1337L14.1565 10.699C17.0145 10.7956 19.7464 11.8333 21.9502 13.6295C24.1539 11.8333 26.8858 10.7956 29.7438 10.699L29.7667 10.6982H30.5963L30.6192 10.699C33.4772 10.7956 36.2091 11.8333 38.4128 13.6295C40.6166 11.8333 43.3485 10.7956 46.2065 10.699L46.2293 10.6982H47.059L47.0819 10.699C49.9399 10.7956 52.6717 11.8333 54.8755 13.6295C57.0793 11.8333 59.8112 10.7956 62.6691 10.699L62.692 10.6982H63.5217L63.5445 10.699C66.9873 10.8153 70.247 12.2974 72.6211 14.8256C74.9951 17.3539 76.2934 20.7259 76.236 24.2148C76.1785 27.7037 74.7701 31.03 72.3141 33.4767C69.8582 35.9234 66.5515 37.2946 63.1068 37.2946C60.0999 37.2946 57.1981 36.2497 54.8755 34.3567C52.553 36.2497 49.6511 37.2946 46.6442 37.2946C43.6372 37.2946 40.7354 36.2497 38.4128 34.3567C36.0903 36.2497 33.1884 37.2946 30.1815 37.2946C27.1746 37.2946 24.2727 36.2497 21.9502 34.3567C19.6276 36.2497 16.7258 37.2946 13.7188 37.2946C10.2742 37.2946 6.96751 35.9234 4.51157 33.4767C2.05563 31.03 0.647136 27.7037 0.589717 24.2148C0.532299 20.7259 1.83055 17.3539 4.20462 14.8256C6.57868 12.2974 9.83842 10.8153 13.2811 10.699L13.304 10.6982ZM23.91 32.3809C25.7053 33.7583 27.9053 34.5152 30.1815 34.5152C32.4577 34.5152 34.6578 33.7583 36.453 32.3809C34.6075 30.0801 33.5643 27.2072 33.5151 24.2148C33.4634 21.0734 34.5108 18.0266 36.453 15.6053C34.7591 14.3057 32.7001 13.5549 30.5499 13.4777H29.8131C27.6629 13.5549 25.6039 14.3057 23.91 15.6053C25.8522 18.0266 26.8996 21.0734 26.8479 24.2148C26.7987 27.2072 25.7555 30.0801 23.91 32.3809ZM21.9502 17.5753C23.3777 19.454 24.1439 21.7765 24.1046 24.1685C24.0671 26.4423 23.3042 28.6289 21.9502 30.4109C20.5961 28.6289 19.8332 26.4423 19.7958 24.1685C19.7564 21.7765 20.5226 19.454 21.9502 17.5753ZM19.9903 15.6053C18.0481 18.0266 17.0007 21.0734 17.0524 24.2148C17.1016 27.2072 18.1448 30.0801 19.9903 32.3809C18.1951 33.7583 15.995 34.5152 13.7188 34.5152C10.994 34.5152 8.37823 33.4305 6.43547 31.4951C4.49272 29.5596 3.37854 26.9283 3.33311 24.1685C3.28769 21.4086 4.31467 18.7412 6.19266 16.7412C8.06556 14.7467 10.6353 13.5753 13.3504 13.4777H14.0872C16.2374 13.5549 18.2964 14.3057 19.9903 15.6053ZM38.4128 17.5753C36.9853 19.454 36.2191 21.7765 36.2585 24.1685C36.2959 26.4423 37.0588 28.6289 38.4128 30.4109C39.7669 28.6289 40.5298 26.4423 40.5672 24.1685C40.6066 21.7765 39.8404 19.454 38.4128 17.5753ZM40.3727 32.3809C42.1679 33.7583 44.368 34.5152 46.6442 34.5152C48.9204 34.5152 51.1204 33.7583 52.9157 32.3809C51.0701 30.0801 50.027 27.2072 49.9777 24.2148C49.926 21.0734 50.9734 18.0266 52.9157 15.6053C51.2217 14.3057 49.1628 13.5549 47.0126 13.4777H46.2758C44.1256 13.5549 42.0666 14.3057 40.3727 15.6053C42.3149 18.0266 43.3623 21.0734 43.3106 24.2148C43.2614 27.2072 42.2182 30.0801 40.3727 32.3809ZM54.8755 17.5753C53.4479 19.454 52.6818 21.7765 52.7211 24.1685C52.7586 26.4423 53.5215 28.6289 54.8755 30.4109C56.2296 28.6289 56.9925 26.4423 57.0299 24.1685C57.0693 21.7765 56.3031 19.454 54.8755 17.5753ZM56.8354 32.3809C58.6306 33.7583 60.8306 34.5152 63.1068 34.5152C65.8317 34.5152 68.4474 33.4305 70.3902 31.4951C72.333 29.5596 73.4471 26.9283 73.4926 24.1685C73.538 21.4086 72.511 18.7412 70.633 16.7412C68.7601 14.7467 66.1904 13.5753 63.4752 13.4777H62.7385C60.5882 13.5549 58.5293 14.3057 56.8354 15.6053C58.7776 18.0266 59.825 21.0734 59.7733 24.2148C59.724 27.2072 58.6809 30.0801 56.8354 32.3809Z" clip-rule="evenodd" fill-rule="evenodd"></path>
</g>
<defs>
<clipPath id="clip0_728_4808">
<rect transform="translate(0 10.5)" fill="white" height="27" width="76.8258"></rect>
</clipPath>
</defs>
</svg>
