<svg xmlns="http://www.w3.org/2000/svg" fill="none" viewBox="0 0 140 48" height="48" width="140">
<path fill="black" d="M45.5702 31.73C46.145 31.7515 46.7158 31.626 47.2285 31.3652C47.7412 31.1045 48.1789 30.7172 48.5002 30.24C48.8212 29.7774 49.0519 29.2583 49.1802 28.71C49.3289 28.1348 49.4094 27.5441 49.4202 26.95C49.424 26.3648 49.3432 25.7821 49.1802 25.22C49.0521 24.6717 48.8214 24.1525 48.5002 23.69C48.1896 23.2427 47.783 22.8703 47.3102 22.6C46.7761 22.3133 46.1761 22.1719 45.5702 22.19C44.9954 22.1686 44.4246 22.2941 43.9119 22.5549C43.3991 22.8156 42.9614 23.2029 42.6402 23.68C42.319 24.1425 42.0882 24.6617 41.9602 25.21C41.8164 25.7792 41.7392 26.3631 41.7302 26.95C41.7264 27.5353 41.8072 28.118 41.9702 28.68C42.0985 29.2283 42.3292 29.7474 42.6502 30.21C42.9714 30.6872 43.4091 31.0745 43.9219 31.3352C44.4346 31.596 45.0054 31.7215 45.5802 31.7001L45.5702 31.73ZM45.5802 34.0401C44.5864 34.0651 43.5984 33.8811 42.6802 33.5C41.8655 33.1763 41.1316 32.6779 40.5302 32.0401C39.9317 31.3971 39.4782 30.6333 39.2002 29.8C38.8949 28.8814 38.7462 27.918 38.7602 26.95C38.7462 25.9821 38.8949 25.0187 39.2002 24.1C39.4782 23.2668 39.9317 22.503 40.5302 21.86C41.1316 21.2222 41.8655 20.7238 42.6802 20.4C43.6031 20.0351 44.5878 19.8517 45.5802 19.86C46.574 19.835 47.562 20.019 48.4802 20.4C49.2949 20.7238 50.0288 21.2222 50.6302 21.86C51.2131 22.5135 51.6496 23.2841 51.9102 24.12C52.2295 25.0294 52.3918 25.9863 52.3902 26.95C52.4002 27.9308 52.2377 28.9056 51.9102 29.83C51.6322 30.6633 51.1786 31.4271 50.5802 32.07C49.9788 32.7079 49.2449 33.2063 48.4302 33.53C47.512 33.9111 46.524 34.0951 45.5302 34.07L45.5802 34.0401ZM59.4402 23.07C58.9973 23.2808 58.6025 23.5804 58.2802 23.95C57.9218 24.3576 57.6436 24.8292 57.4602 25.34C57.2631 25.9878 57.172 26.6632 57.1902 27.34V33.66H54.1902V19.95H56.9802V22.4C56.9802 22.4 58.2802 19.95 62.1302 19.95V22.74C61.2197 22.6689 60.3043 22.7846 59.4402 23.08V23.07ZM72.7202 28.67C72.5919 29.2183 72.3612 29.7374 72.0402 30.2C71.7296 30.6474 71.323 31.0198 70.8502 31.2901C70.3161 31.5768 69.7161 31.7182 69.1102 31.7001C68.5354 31.7215 67.9646 31.596 67.4519 31.3352C66.9391 31.0745 66.5014 30.6872 66.1802 30.21C65.8592 29.7474 65.6285 29.2283 65.5002 28.68C65.3538 28.1146 65.2733 27.534 65.2602 26.95C65.2565 26.3648 65.3373 25.7822 65.5002 25.22C65.6282 24.6717 65.859 24.1525 66.1802 23.69C66.4908 23.2427 66.8974 22.8703 67.3702 22.6C67.9043 22.3133 68.5043 22.1719 69.1102 22.19C69.685 22.1686 70.2558 22.2941 70.7685 22.5549C71.2812 22.8156 71.7189 23.2029 72.0402 23.68C72.3614 24.1425 72.5921 24.6617 72.7202 25.21C72.8673 25.7788 72.9479 26.3627 72.9602 26.95C72.935 27.533 72.8546 28.1123 72.7202 28.68V28.67ZM75.9202 26.78V15.12H73.1002V21.03C72.7561 20.794 72.3913 20.5899 72.0102 20.42C71.0873 20.0551 70.1026 19.8717 69.1102 19.88C68.1164 19.855 67.1284 20.039 66.2102 20.42C65.3955 20.7438 64.6616 21.2422 64.0602 21.88C63.4617 22.523 63.0082 23.2868 62.7302 24.12C62.4279 25.0323 62.2825 25.9892 62.3002 26.95C62.2809 27.9184 62.4297 28.8827 62.7402 29.8C63.0182 30.6333 63.4717 31.3971 64.0702 32.0401C64.6716 32.6779 65.4055 33.1763 66.2202 33.5C67.1431 33.865 68.1278 34.0484 69.1202 34.0401C70.114 34.0651 71.102 33.8811 72.0202 33.5C72.8349 33.1763 73.5688 32.6779 74.1702 32.0401C74.7686 31.3971 75.2222 30.6333 75.5002 29.8C75.7953 28.8797 75.9339 27.9163 75.9102 26.95V26.75L75.9202 26.78ZM87.5402 25.79C87.5061 25.3237 87.4016 24.8651 87.2302 24.43C87.0727 24.0189 86.8424 23.6394 86.5502 23.31C86.2484 22.9864 85.8889 22.7219 85.4902 22.53C85.0675 22.3213 84.6016 22.2151 84.1302 22.22C83.641 22.2219 83.1563 22.3134 82.7002 22.49C82.2873 22.659 81.9155 22.9148 81.6102 23.24C81.3081 23.5657 81.0705 23.9458 80.9102 24.36C80.7392 24.8056 80.6347 25.274 80.6002 25.75H87.5502L87.5402 25.79ZM80.5902 27.73C80.5844 28.2368 80.6656 28.7408 80.8302 29.22C80.9628 29.6885 81.1925 30.1238 81.5043 30.4976C81.8161 30.8715 82.2031 31.1756 82.6402 31.39C83.1556 31.6214 83.7153 31.7375 84.2802 31.73C85.0223 31.7716 85.7592 31.583 86.3902 31.19C86.9544 30.7785 87.3716 30.1966 87.5802 29.53H90.4102C90.2534 30.2387 89.976 30.9152 89.5902 31.53C89.2104 32.0818 88.7365 32.5625 88.1902 32.9501C87.6407 33.3432 87.0288 33.6407 86.3802 33.83C85.6961 34.0373 84.985 34.1417 84.2702 34.14C83.3025 34.1578 82.3408 33.9845 81.4402 33.63C80.6455 33.2972 79.9326 32.7958 79.3508 32.1604C78.7689 31.525 78.332 30.7709 78.0702 29.95C77.7813 29.0275 77.633 28.0667 77.6302 27.1C77.6184 26.1748 77.7673 25.2544 78.0702 24.38C78.3627 23.5501 78.7994 22.7782 79.3602 22.1C79.928 21.4644 80.6054 20.936 81.3602 20.54C82.231 20.1378 83.181 19.9362 84.1402 19.95C85.1346 19.9414 86.1161 20.1748 87.0002 20.63C87.8264 21.0558 88.5472 21.6605 89.1102 22.4C89.6742 23.1654 90.0881 24.0307 90.3302 24.95C90.5668 25.9042 90.6345 26.8925 90.5302 27.87H80.5302V27.77L80.5902 27.73ZM97.5602 23.07C97.1173 23.2808 96.7225 23.5804 96.4002 23.95C96.0418 24.3576 95.7636 24.8292 95.5802 25.34C95.3831 25.9878 95.292 26.6632 95.3102 27.34V33.66H92.3102V19.95H95.1002V21.95C95.1002 21.95 96.3602 19.95 100.21 19.95V22.74C99.2997 22.67 98.3846 22.7857 97.5202 23.08L97.5602 23.07ZM113.57 29.29C113.359 30.011 113.02 30.6883 112.57 31.2901C112.122 31.8505 111.555 32.3047 110.91 32.62C110.22 32.956 109.463 33.1306 108.695 33.1306C107.928 33.1306 107.17 32.956 106.48 32.62C105.865 32.2852 105.329 31.8212 104.91 31.26C104.447 30.6667 104.107 29.9867 103.91 29.26C103.456 27.7536 103.456 26.1465 103.91 24.64C104.122 23.9191 104.46 23.2418 104.91 22.64C105.35 22.071 105.91 21.6065 106.55 21.28C107.24 20.9441 107.998 20.7695 108.765 20.7695C109.533 20.7695 110.29 20.9441 110.98 21.28C111.621 21.6065 112.181 22.071 112.62 22.64C113.07 23.2418 113.409 23.9191 113.62 24.64C114.075 26.1465 114.075 27.7536 113.62 29.26L113.57 29.29ZM114.49 24.29C114.232 23.4778 113.828 22.719 113.3 22.05C112.78 21.397 112.116 20.8733 111.36 20.52C110.54 20.1398 109.644 19.9549 108.74 19.98C107.838 19.9713 106.945 20.1555 106.12 20.52C105.375 20.8912 104.715 21.412 104.18 22.05C103.932 22.3615 103.714 22.6964 103.53 23.05V15.05H102.53V26.95C102.525 27.8725 102.663 28.7901 102.94 29.67C103.203 30.4985 103.617 31.2714 104.16 31.9501C104.682 32.5907 105.347 33.1008 106.1 33.44C106.929 33.7992 107.822 33.9845 108.725 33.9845C109.628 33.9845 110.522 33.7992 111.35 33.44C112.086 33.0717 112.744 32.5659 113.29 31.9501C113.838 31.2939 114.243 30.5311 114.48 29.71C114.768 28.8184 114.913 27.8869 114.91 26.95C114.913 26.0507 114.774 25.1566 114.5 24.3L114.49 24.29ZM117.08 33.7001H118.07V20.32H117.08V33.7001ZM122.22 23.27H122.29C122.422 22.8174 122.655 22.4003 122.97 22.05C123.311 21.6549 123.712 21.3172 124.16 21.05C124.639 20.7668 125.154 20.5482 125.69 20.4C126.27 20.2647 126.864 20.1976 127.46 20.2V21.2C126.852 21.1277 126.235 21.1856 125.65 21.37C124.918 21.5714 124.256 21.9732 123.74 22.53L123.09 23.28C122.903 23.5299 122.755 23.8063 122.65 24.1C122.519 24.4209 122.428 24.7568 122.38 25.1C122.311 25.5274 122.265 25.9579 122.24 26.39V33.73H121.24V20.32H122.24V23.32L122.22 23.27ZM138.5 29.29C138.289 30.011 137.95 30.6883 137.5 31.2901C137.072 31.8426 136.53 32.2962 135.91 32.62C135.226 32.9671 134.467 33.1422 133.7 33.13C132.933 33.1459 132.173 32.9706 131.49 32.62C130.85 32.2936 130.29 31.8291 129.85 31.26C129.4 30.6583 129.062 29.981 128.85 29.26C128.396 27.7536 128.396 26.1465 128.85 24.64C129.062 23.9191 129.4 23.2418 129.85 22.64C130.29 22.071 130.85 21.6065 131.49 21.28C132.174 20.933 132.933 20.7579 133.7 20.77C134.468 20.7542 135.227 20.9295 135.91 21.28C136.551 21.6065 137.111 22.071 137.55 22.64C138.013 23.2334 138.353 23.9134 138.55 24.64C139.005 26.1465 139.005 27.7536 138.55 29.26L138.5 29.29ZM139.83 15.09H138.83V23.09C138.634 22.7439 138.417 22.4099 138.18 22.09C137.66 21.437 136.996 20.9133 136.24 20.56C135.42 20.1798 134.524 19.9949 133.62 20.02C132.718 20.0114 131.825 20.1955 131 20.56C130.25 20.9224 129.587 21.4446 129.06 22.09C128.55 22.7499 128.161 23.4947 127.91 24.29C127.634 25.1564 127.496 26.0608 127.5 26.97C127.495 27.8925 127.633 28.8101 127.91 29.69C128.166 30.5094 128.57 31.2752 129.1 31.9501C129.622 32.5907 130.287 33.1008 131.04 33.44C131.869 33.7992 132.762 33.9845 133.665 33.9845C134.568 33.9845 135.462 33.7992 136.29 33.44C137.026 33.0717 137.684 32.5659 138.23 31.9501C138.758 31.2811 139.162 30.5223 139.42 29.71C139.697 28.8301 139.835 27.9125 139.83 26.99V15.08V15.09Z"></path>
<path fill="black" d="M10.69 13.11C12.22 13.31 14.06 13.59 14.81 13.79C15.6337 16.297 16.1148 18.904 16.24 21.54C14.9889 18.3784 13.0996 15.5087 10.69 13.11V13.11ZM35.15 12.29C26.23 8.61995 24.15 14.7 23.53 15.89C18.63 8.28995 11.85 7.02995 11.75 6.94995C12.9099 8.79166 13.837 10.7701 14.51 12.84C12.2261 12.2995 9.90159 11.9484 7.56 11.79C11.0801 14.3405 13.8444 17.7959 15.56 21.79C9.91 24.43 5.45 24.2199 0 24.3899C1.23 24.9999 10.9 30.6799 21.53 26.6299C25.69 25.1399 28.82 22.28 31.72 18.63C33.55 16.17 34.57 14.23 39.91 12.06C40.42 11.86 40.39 11.28 39.64 11.41C39.64 11.41 36.44 11.95 35.18 12.29"></path>
</svg>
