<?xml version="1.0" standalone="no"?>
<!DOCTYPE svg PUBLIC "-//W3C//DTD SVG 20010904//EN"
 "http://www.w3.org/TR/2001/REC-SVG-20010904/DTD/svg10.dtd">
<svg version="1.0" xmlns="http://www.w3.org/2000/svg"
 width="460.000000pt" height="257.000000pt" viewBox="0 0 460.000000 257.000000"
 preserveAspectRatio="xMidYMid meet">
<metadata>
Created by potrace 1.16, written by Peter Selinger 2001-2019
</metadata>
<g transform="translate(0.000000,257.000000) scale(0.100000,-0.100000)"
fill="#000000" stroke="none">
<path d="M2285 1536 c-16 -7 -40 -25 -53 -39 l-23 -25 -47 27 c-67 37 -158 37
-226 -1 l-48 -28 -56 16 c-41 12 -73 15 -126 9 -88 -9 -107 -9 -227 0 -155 12
-262 -29 -369 -141 -271 -282 -110 -750 277 -806 65 -9 90 -9 148 5 62 13 77
14 125 1 73 -19 99 -18 171 6 55 19 63 19 78 6 57 -52 175 -61 252 -20 l48 27
42 -36 c74 -64 175 -60 244 8 21 22 37 31 41 24 14 -24 90 -49 148 -49 48 0
70 6 112 30 50 28 54 29 88 15 56 -24 135 -28 189 -11 43 13 57 13 125 -1 299
-61 587 201 558 508 -19 202 -147 362 -338 420 -59 18 -83 20 -161 14 -120 -8
-148 -8 -234 0 -56 6 -84 4 -124 -9 l-52 -17 -51 28 c-71 39 -161 39 -228 2
l-47 -27 -23 25 c-13 14 -35 31 -50 39 -34 18 -123 18 -163 0z m155 -36 c57
-29 62 -44 31 -104 l-26 -50 0 -321 0 -320 27 -55 c26 -51 26 -55 10 -73 -45
-50 -141 -63 -200 -27 -45 27 -48 42 -20 97 23 47 23 52 23 378 l0 330 -26 46
c-29 52 -26 63 31 98 44 26 99 27 150 1z m-296 -30 l41 -19 -2 -428 -2 -428
-35 -18 c-65 -34 -156 -31 -208 7 -16 12 -13 17 27 60 79 85 87 122 83 396 -3
232 -3 236 -30 285 -14 28 -42 65 -62 84 -19 19 -33 38 -29 44 23 38 153 49
217 17z m626 4 c22 -9 40 -19 40 -21 0 -3 -18 -26 -41 -50 -80 -87 -84 -106
-84 -378 0 -238 0 -240 26 -296 15 -31 43 -73 64 -94 36 -35 37 -38 19 -49
-69 -41 -130 -45 -197 -13 l-48 22 -2 428 -2 427 40 20 c49 24 129 26 185 4z
m-1213 -18 c3 -2 -13 -21 -36 -41 -22 -20 -53 -62 -68 -93 l-28 -57 0 -240 c0
-239 0 -240 27 -297 14 -31 45 -74 68 -96 l41 -41 -47 -7 c-188 -28 -387 78
-468 249 -143 303 93 653 428 632 43 -2 81 -7 83 -9z m1815 3 c164 -35 301
-164 343 -324 79 -306 -185 -598 -498 -551 l-45 7 48 48 c31 31 55 67 69 106
21 56 22 72 19 295 -3 233 -3 236 -30 285 -14 28 -45 68 -68 90 l-41 40 33 6
c55 10 114 10 170 -2z m-171 -76 c14 -13 37 -45 50 -71 23 -45 24 -57 27 -269
2 -134 -1 -237 -7 -261 -14 -49 -58 -111 -106 -147 l-36 -28 -51 24 c-28 13
-75 48 -104 77 l-54 54 0 260 0 259 45 48 c25 26 71 62 102 79 64 34 72 33
134 -25z m-1520 19 c24 -16 63 -49 87 -73 l42 -44 0 -263 0 -264 -53 -51 c-29
-29 -74 -63 -99 -75 -43 -22 -47 -23 -76 -8 -35 18 -75 63 -105 120 -20 38
-22 57 -25 257 -2 131 1 232 7 256 22 83 104 172 157 173 11 0 40 -13 65 -28z
m278 -39 c57 -69 63 -106 59 -360 -3 -197 -5 -232 -21 -261 -24 -43 -86 -112
-102 -112 -11 0 -37 49 -50 97 -4 13 3 40 18 70 75 147 75 308 2 453 -22 44
-24 56 -16 88 6 20 18 47 26 60 20 27 39 19 84 -35z m905 23 c27 -57 30 -93
11 -122 -27 -42 -55 -133 -61 -203 -8 -82 8 -166 48 -249 22 -48 28 -70 23
-95 -9 -41 -36 -87 -51 -87 -16 0 -69 62 -96 113 -22 40 -23 52 -23 282 0 230
1 242 23 282 22 43 86 113 101 113 5 0 16 -15 25 -34z m-346 -553 l-3 -198
-20 35 c-19 33 -20 53 -20 355 0 302 1 322 20 355 l20 35 3 -192 c1 -105 1
-281 0 -390z m-271 521 c20 -56 15 -646 -6 -686 -8 -16 -18 -28 -23 -28 -4 0
-8 171 -8 381 0 392 4 428 37 333z"/>
</g>
</svg>
