<?xml version="1.0" standalone="no"?>
<!DOCTYPE svg PUBLIC "-//W3C//DTD SVG 20010904//EN"
 "http://www.w3.org/TR/2001/REC-SVG-20010904/DTD/svg10.dtd">
<svg version="1.0" xmlns="http://www.w3.org/2000/svg"
 width="417.000000pt" height="216.000000pt" viewBox="0 0 417.000000 216.000000"
 preserveAspectRatio="xMidYMid meet">
<metadata>
Created by potrace 1.16, written by Peter Selinger 2001-2019
</metadata>
<g transform="translate(0.000000,216.000000) scale(0.100000,-0.100000)"
fill="#000000" stroke="none">
<path d="M776 1520 c-40 -13 -74 -47 -86 -89 -13 -48 -13 -814 0 -862 5 -19
24 -48 41 -65 l30 -29 1082 -3 c1066 -2 1082 -2 1115 18 18 11 39 35 48 52
l15 33 201 0 200 0 24 28 25 29 -3 375 -3 375 -24 19 c-21 17 -41 19 -220 19
l-197 0 -17 36 c-12 24 -30 41 -60 54 -41 19 -76 20 -1092 19 -577 0 -1063 -5
-1079 -9z m2183 -54 c17 -17 31 -33 31 -38 0 -4 -87 -8 -194 -8 -180 0 -195
-1 -220 -21 l-26 -20 0 -378 c0 -297 3 -381 13 -395 19 -26 84 -33 270 -31 86
0 157 -2 157 -5 0 -15 -32 -48 -57 -59 -21 -8 -307 -11 -1095 -9 l-1068 3 -27
28 -28 27 -3 425 c-2 373 -1 429 13 456 32 61 -21 59 1142 56 l1062 -2 30 -29z
m31 -466 l0 -390 -193 0 c-137 0 -196 3 -205 12 -17 17 -17 739 0 756 9 9 68
12 205 12 l193 0 0 -390z m434 374 c14 -13 16 -62 16 -378 0 -268 -3 -365 -12
-374 -9 -9 -69 -12 -210 -12 l-198 0 0 390 0 390 194 0 c164 0 197 -3 210 -16z"/>
<path d="M815 1395 c-24 -23 -25 -29 -25 -160 0 -131 1 -137 25 -160 l24 -25
420 0 419 0 4 -126 c4 -179 -32 -164 395 -164 l344 0 24 25 c25 24 25 25 25
223 0 186 -1 201 -21 226 l-20 26 -190 0 -189 0 0 55 c0 46 -4 60 -25 80 l-24
25 -581 0 -581 0 -24 -25z m1193 -17 c7 -7 12 -36 12 -65 l0 -53 -145 0 c-142
0 -147 -1 -170 -25 -22 -21 -25 -33 -25 -90 l0 -65 -411 0 c-264 0 -417 4
-430 10 -17 10 -19 22 -19 143 0 90 4 137 12 145 17 17 1159 17 1176 0z m12
-213 c0 -53 -3 -66 -19 -75 -11 -5 -81 -10 -155 -10 l-136 0 0 56 c0 95 -2 94
165 94 l145 0 0 -65z m408 53 c9 -9 12 -69 12 -210 0 -185 -1 -198 -19 -208
-13 -6 -141 -10 -347 -10 -291 0 -329 2 -346 17 -15 14 -18 32 -18 130 l0 113
145 0 c142 0 147 1 170 25 22 21 25 33 25 90 l0 65 183 0 c129 0 187 -4 195
-12z"/>
<path d="M1709 711 c-35 -36 -37 -70 -5 -108 l24 -27 348 2 c340 3 349 4 371
24 23 21 29 60 17 93 -16 41 -47 45 -394 45 l-332 0 -29 -29z m709 -17 c24
-17 29 -53 10 -72 -9 -9 -101 -12 -354 -12 -368 0 -370 0 -362 52 6 44 32 48
368 48 270 0 319 -2 338 -16z"/>
</g>
</svg>
