<?xml version="1.0" standalone="no"?>
<!DOCTYPE svg PUBLIC "-//W3C//DTD SVG 20010904//EN"
 "http://www.w3.org/TR/2001/REC-SVG-20010904/DTD/svg10.dtd">
<svg version="1.0" xmlns="http://www.w3.org/2000/svg"
 width="373.000000pt" height="214.000000pt" viewBox="0 0 373.000000 214.000000"
 preserveAspectRatio="xMidYMid meet">
<metadata>
Created by potrace 1.16, written by Peter Selinger 2001-2019
</metadata>
<g transform="translate(0.000000,214.000000) scale(0.100000,-0.100000)"
fill="#000000" stroke="none">
<path d="M1716 1720 c-58 -18 -96 -77 -96 -152 l0 -28 -135 0 c-135 0 -135 0
-167 -29 l-33 -29 -3 -141 -4 -141 -36 0 c-90 0 -128 -63 -120 -200 7 -124 32
-145 177 -145 76 0 102 4 123 18 29 20 48 63 48 108 l0 29 75 0 75 0 0 -102
c0 -124 10 -165 51 -204 l30 -29 174 -3 c143 -3 179 -1 204 13 42 21 65 60 71
119 l5 50 68 -3 c53 -2 76 -8 104 -27 34 -23 42 -24 209 -24 l173 0 36 31 35
31 0 187 c0 208 -4 221 -66 247 l-34 14 0 80 c0 74 -2 82 -29 112 l-29 33
-234 5 -233 5 -6 51 c-14 112 -57 134 -262 133 -78 0 -155 -5 -171 -9z m375
-58 c23 -25 29 -42 29 -77 0 -43 -1 -45 -30 -45 -19 0 -42 -11 -62 -29 l-33
-29 -3 -274 c-2 -258 -1 -275 18 -305 14 -24 31 -35 65 -44 42 -11 45 -13 45
-46 0 -47 -23 -88 -58 -102 -20 -9 -80 -11 -191 -9 -160 3 -161 3 -188 31 -27
27 -28 31 -31 151 l-4 123 52 5 c39 4 59 12 78 32 l27 26 3 193 c3 165 1 196
-13 224 -19 34 -50 51 -105 55 -30 3 -35 7 -38 29 -2 15 4 43 12 63 24 58 55
66 239 63 l159 -2 29 -33z m-471 -387 l0 -235 -74 0 -73 0 -5 51 c-7 69 -38
100 -107 107 l-51 5 0 129 c0 124 1 130 25 153 23 24 29 25 155 25 l130 0 0
-235z m139 209 c20 -25 21 -40 21 -209 0 -215 -5 -227 -81 -229 l-44 -1 -3
233 -2 232 44 0 c36 0 48 -5 65 -26z m361 -290 l0 -316 -27 7 c-16 3 -38 16
-50 27 -23 21 -23 25 -23 285 l0 264 25 24 c13 14 36 25 50 25 l25 0 0 -316z
m505 291 c22 -21 25 -33 25 -100 l0 -75 -127 0 c-237 0 -243 -7 -243 -258 l0
-173 -62 3 -63 3 -3 313 -2 312 225 0 226 0 24 -25z m25 -374 c0 -165 -1 -171
-24 -198 l-24 -28 -144 0 -143 0 -3 168 -2 168 29 30 29 29 141 0 141 0 0
-169z m94 124 c3 -9 6 -95 6 -190 l0 -174 -26 -20 c-24 -19 -40 -21 -183 -21
-150 0 -201 5 -201 19 0 3 58 6 128 6 207 0 212 7 212 255 l0 171 29 -15 c16
-9 31 -23 35 -31z m-1464 -100 c0 -74 53 -125 130 -125 28 0 30 -3 30 -34 0
-22 -9 -45 -24 -63 -23 -27 -28 -28 -120 -28 -125 0 -139 11 -144 119 -7 124
17 164 96 165 30 1 32 -1 32 -34z"/>
<path d="M579 1641 l-29 -29 0 -190 c0 -186 0 -190 24 -215 32 -35 64 -39 254
-35 161 3 162 3 189 31 l28 27 3 175 c4 192 -5 231 -54 254 -16 7 -92 11 -205
11 l-181 0 -29 -29z m420 -27 c19 -25 21 -40 21 -196 0 -166 0 -169 -25 -193
-24 -25 -27 -25 -194 -25 -165 0 -171 1 -198 24 l-28 24 -2 152 c-1 158 6 207
34 228 12 8 68 12 194 12 l178 0 20 -26z"/>
<path d="M2889 1561 c-29 -29 -29 -30 -29 -148 0 -172 20 -193 187 -193 80 0
104 4 131 20 44 27 52 54 52 171 0 106 -13 149 -49 169 -11 5 -74 10 -141 10
-121 0 -122 0 -151 -29z m290 -27 c18 -23 21 -41 21 -120 0 -51 -4 -104 -9
-117 -14 -38 -58 -49 -166 -45 -130 4 -135 10 -135 159 0 148 1 149 154 149
112 0 115 -1 135 -26z"/>
<path d="M2895 1146 l-30 -24 -3 -126 -4 -126 35 -35 35 -35 115 0 116 0 35
34 36 33 0 112 c0 177 -13 190 -185 191 -112 0 -122 -2 -150 -24z m284 -32
c18 -23 21 -41 21 -129 0 -145 -4 -149 -149 -153 -108 -4 -111 -3 -136 23 -26
25 -27 28 -23 140 4 146 2 144 155 145 109 0 112 -1 132 -26z"/>
<path d="M709 1061 c-29 -29 -29 -30 -29 -151 l0 -122 34 -34 34 -34 106 0
c169 0 196 26 196 189 0 99 -8 129 -41 160 -21 19 -35 21 -147 21 -123 0 -124
0 -153 -29z m290 -27 c18 -23 21 -41 21 -120 0 -152 -18 -168 -175 -162 -130
4 -135 10 -135 159 0 148 1 149 154 149 112 0 115 -1 135 -26z"/>
</g>
</svg>
