<?xml version="1.0" standalone="no"?>
<!DOCTYPE svg PUBLIC "-//W3C//DTD SVG 20010904//EN"
 "http://www.w3.org/TR/2001/REC-SVG-20010904/DTD/svg10.dtd">
<svg version="1.0" xmlns="http://www.w3.org/2000/svg"
 width="346.000000pt" height="192.000000pt" viewBox="0 0 346.000000 192.000000"
 preserveAspectRatio="xMidYMid meet">
<metadata>
Created by potrace 1.16, written by Peter Selinger 2001-2019
</metadata>
<g transform="translate(0.000000,192.000000) scale(0.100000,-0.100000)"
fill="#000000" stroke="none">
<path d="M1621 1318 c-143 -41 -212 -202 -145 -337 17 -33 42 -64 65 -80 41
-28 48 -41 24 -41 -24 0 -111 -47 -149 -81 l-35 -30 -51 35 c-29 20 -69 41
-91 47 -35 11 -54 29 -30 29 22 0 73 69 87 118 40 138 -57 267 -201 267 -139
0 -233 -120 -203 -259 8 -38 21 -60 58 -97 l49 -49 -59 -26 c-32 -14 -72 -41
-90 -59 l-32 -33 -49 21 -49 21 24 25 c36 39 48 68 48 117 0 160 -223 216
-294 74 -32 -63 -18 -151 31 -194 l21 -19 -47 -24 c-108 -55 -172 -152 -181
-275 l-5 -68 1368 0 1367 0 -4 73 c-4 88 -32 149 -95 211 -25 25 -65 53 -89
62 l-44 17 30 33 c95 109 27 264 -116 264 -62 0 -111 -29 -136 -80 -32 -63
-18 -151 31 -194 l21 -20 -42 -21 -43 -22 -55 43 c-30 23 -78 50 -107 60 l-52
18 33 28 c125 103 89 309 -63 363 -76 26 -144 14 -207 -38 -105 -87 -95 -268
19 -337 l30 -19 -27 -7 c-14 -3 -54 -24 -87 -45 l-60 -39 -32 29 c-31 30 -85
61 -140 81 l-28 10 42 33 c89 68 115 190 63 295 -30 61 -74 98 -140 118 -53
16 -84 16 -133 2z m123 -29 c21 -6 59 -30 83 -53 106 -99 81 -265 -48 -330
-84 -41 -167 -30 -232 32 -113 106 -74 296 69 347 48 17 77 18 128 4z m-581
-83 c43 -17 93 -76 108 -125 21 -72 -11 -152 -80 -198 -26 -18 -48 -23 -96
-23 -53 0 -68 4 -103 30 -65 47 -92 117 -72 189 28 105 147 168 243 127z
m1163 -5 c63 -29 97 -81 102 -155 3 -54 0 -66 -26 -107 -36 -55 -82 -79 -153
-79 -202 0 -247 273 -58 349 38 15 91 12 135 -8z m-1598 -204 c49 -45 48 -139
-3 -187 -32 -30 -109 -39 -153 -16 -77 40 -83 157 -12 213 43 36 124 31 168
-10z m2073 17 c52 -26 75 -84 59 -144 -14 -53 -50 -82 -108 -88 -86 -8 -142
41 -142 125 0 57 37 104 95 122 32 10 55 6 96 -15z m-959 -197 c30 -13 70 -38
90 -56 l36 -32 -34 -57 c-41 -68 -64 -139 -64 -199 l0 -43 -182 2 -183 3 -7
66 c-7 73 -32 139 -73 193 l-26 34 36 29 c44 36 118 74 165 84 63 14 183 2
242 -24z m-611 -17 c28 -10 69 -31 90 -46 l38 -26 -24 -38 c-40 -63 -57 -112
-63 -185 l-7 -70 -156 -3 -157 -2 -4 57 c-5 66 -33 132 -78 182 -30 32 -30 34
-13 53 23 26 98 70 143 84 58 19 173 17 231 -6z m1163 0 c30 -12 74 -38 97
-59 l43 -38 -28 -29 c-40 -41 -76 -125 -83 -189 l-6 -55 -151 0 -152 0 -11 77
c-8 53 -22 99 -48 147 l-36 71 33 28 c79 67 232 88 342 47z m-1646 -80 c24
-11 42 -23 40 -27 -2 -5 -15 -31 -31 -60 -16 -31 -32 -84 -38 -128 l-11 -75
-181 0 -180 0 6 55 c10 102 69 184 163 231 64 31 169 33 232 4z m2102 -1 c95
-43 158 -130 167 -231 l6 -58 -182 0 -181 0 0 33 c0 50 -28 147 -56 195 l-25
42 43 19 c60 27 168 27 228 0z m-1443 -52 c34 -50 55 -107 62 -169 l7 -58 -93
0 -94 0 6 48 c4 26 11 63 17 82 12 40 58 130 67 130 3 0 16 -15 28 -33z m658
-112 c8 -32 15 -72 15 -87 l0 -28 -90 0 -90 0 0 38 c0 57 26 133 61 182 l31
43 29 -44 c15 -24 35 -71 44 -104z m550 1 c8 -27 15 -65 15 -83 l0 -33 -91 0
-92 0 6 49 c7 57 37 123 75 164 l26 27 23 -37 c13 -21 30 -60 38 -87z m-1763
87 c38 -41 59 -89 65 -149 l6 -54 -92 0 c-88 0 -91 1 -91 23 0 61 56 207 79
207 4 0 19 -12 33 -27z"/>
</g>
</svg>
